<svg width="107" height="120" viewBox="0 0 107 120" fill="none" xmlns="http://www.w3.org/2000/svg">
<path d="M4.32 91C4 91 3.84 90.84 3.84 90.52L3.936 24.568C3.936 24.312 4.064 24.184 4.32 24.184H15.072C15.328 24.184 15.456 24.312 15.456 24.568L15.552 90.52C15.552 90.84 15.424 91 15.168 91H4.32ZM41.0843 91.96C37.6923 91.96 34.5563 91.096 31.6763 89.368C28.8603 87.576 26.5883 85.24 24.8603 82.36C23.1323 79.48 22.2683 76.312 22.2683 72.856V66.904C22.2683 64.216 22.7803 61.72 23.8043 59.416C24.8283 57.048 26.2043 54.968 27.9323 53.176C26.5243 51.64 25.4043 49.848 24.5723 47.8C23.8043 45.688 23.4203 43.448 23.4203 41.08C23.4203 37.752 24.1883 34.744 25.7243 32.056C27.3243 29.304 29.4683 27.128 32.1562 25.528C34.8443 23.928 37.8203 23.128 41.0843 23.128C44.3483 23.128 47.2923 23.96 49.9163 25.624C52.6043 27.224 54.7483 29.368 56.3483 32.056C57.9483 34.744 58.7483 37.752 58.7483 41.08C58.7483 43.448 58.3323 45.656 57.5003 47.704C56.7323 49.752 55.6443 51.576 54.2363 53.176C55.9643 54.904 57.3083 56.952 58.2683 59.32C59.2923 61.688 59.8043 64.216 59.8043 66.904V72.856C59.8043 76.312 58.9403 79.512 57.2123 82.456C55.5483 85.336 53.3083 87.64 50.4923 89.368C47.6763 91.096 44.5403 91.96 41.0843 91.96ZM41.0843 47.512C42.7483 47.512 44.1563 46.904 45.3083 45.688C46.5243 44.408 47.1323 42.872 47.1323 41.08C47.1323 39.288 46.5243 37.752 45.3083 36.472C44.1563 35.192 42.7483 34.552 41.0843 34.552C39.4203 34.552 37.9803 35.192 36.7643 36.472C35.5483 37.752 34.9403 39.288 34.9403 41.08C34.9403 42.808 35.5483 44.312 36.7643 45.592C37.9803 46.872 39.4203 47.512 41.0843 47.512ZM41.0843 80.44C43.0683 80.44 44.7323 79.704 46.0763 78.232C47.4843 76.76 48.1883 74.968 48.1883 72.856V66.904C48.1883 64.856 47.4843 63.096 46.0763 61.624C44.7323 60.088 43.0683 59.32 41.0843 59.32C39.1003 59.32 37.4043 60.056 35.9963 61.528C34.5883 63 33.8843 64.792 33.8843 66.904V72.856C33.8843 74.904 34.5883 76.696 35.9963 78.232C37.4043 79.704 39.1003 80.44 41.0843 80.44ZM84.2093 91.96C80.8173 91.96 77.6813 91.096 74.8013 89.368C71.9853 87.576 69.7133 85.24 67.9853 82.36C66.2573 79.48 65.3933 76.312 65.3933 72.856V66.904C65.3933 64.216 65.9053 61.72 66.9293 59.416C67.9533 57.048 69.3293 54.968 71.0573 53.176C69.6493 51.64 68.5293 49.848 67.6973 47.8C66.9293 45.688 66.5453 43.448 66.5453 41.08C66.5453 37.752 67.3133 34.744 68.8493 32.056C70.4493 29.304 72.5933 27.128 75.2812 25.528C77.9693 23.928 80.9453 23.128 84.2093 23.128C87.4733 23.128 90.4173 23.96 93.0413 25.624C95.7293 27.224 97.8733 29.368 99.4733 32.056C101.073 34.744 101.873 37.752 101.873 41.08C101.873 43.448 101.457 45.656 100.625 47.704C99.8573 49.752 98.7693 51.576 97.3613 53.176C99.0893 54.904 100.433 56.952 101.393 59.32C102.417 61.688 102.929 64.216 102.929 66.904V72.856C102.929 76.312 102.065 79.512 100.337 82.456C98.6733 85.336 96.4333 87.64 93.6173 89.368C90.8013 91.096 87.6653 91.96 84.2093 91.96ZM84.2093 47.512C85.8733 47.512 87.2813 46.904 88.4333 45.688C89.6493 44.408 90.2573 42.872 90.2573 41.08C90.2573 39.288 89.6493 37.752 88.4333 36.472C87.2813 35.192 85.8733 34.552 84.2093 34.552C82.5453 34.552 81.1053 35.192 79.8893 36.472C78.6733 37.752 78.0653 39.288 78.0653 41.08C78.0653 42.808 78.6733 44.312 79.8893 45.592C81.1053 46.872 82.5453 47.512 84.2093 47.512ZM84.2093 80.44C86.1933 80.44 87.8573 79.704 89.2013 78.232C90.6093 76.76 91.3133 74.968 91.3133 72.856V66.904C91.3133 64.856 90.6093 63.096 89.2013 61.624C87.8573 60.088 86.1933 59.32 84.2093 59.32C82.2253 59.32 80.5293 60.056 79.1213 61.528C77.7133 63 77.0093 64.792 77.0093 66.904V72.856C77.0093 74.904 77.7133 76.696 79.1213 78.232C80.5293 79.704 82.2253 80.44 84.2093 80.44Z" fill="black"/>
<path d="M9.552 108.096C9.22667 108.096 8.95467 108 8.736 107.808C8.52267 107.611 8.416 107.339 8.416 106.992C8.416 106.565 8.60533 106.24 8.984 106.016C9.368 105.787 9.97333 105.627 10.8 105.536C10.8 105.371 10.776 105.213 10.728 105.064C10.6853 104.915 10.6053 104.795 10.488 104.704C10.376 104.608 10.2133 104.56 10 104.56C9.776 104.56 9.56533 104.603 9.368 104.688C9.17067 104.773 8.99467 104.869 8.84 104.976L8.584 104.52C8.76533 104.403 8.98667 104.291 9.248 104.184C9.51467 104.072 9.80267 104.016 10.112 104.016C10.5867 104.016 10.9307 104.163 11.144 104.456C11.3573 104.744 11.464 105.131 11.464 105.616V108H10.92L10.864 107.536H10.84C10.6587 107.685 10.4587 107.816 10.24 107.928C10.0267 108.04 9.79733 108.096 9.552 108.096ZM9.744 107.568C9.93067 107.568 10.1067 107.523 10.272 107.432C10.4373 107.341 10.6133 107.213 10.8 107.048V105.968C10.1547 106.048 9.70133 106.168 9.44 106.328C9.184 106.488 9.056 106.693 9.056 106.944C9.056 107.163 9.12267 107.323 9.256 107.424C9.38933 107.52 9.552 107.568 9.744 107.568ZM12.6073 108V104.112H13.1513L13.2073 104.816H13.2313C13.3646 104.571 13.5273 104.376 13.7193 104.232C13.9113 104.088 14.1166 104.016 14.3353 104.016C14.4899 104.016 14.6286 104.043 14.7513 104.096L14.6233 104.672C14.5593 104.651 14.5006 104.635 14.4473 104.624C14.3939 104.613 14.3273 104.608 14.2473 104.608C14.0819 104.608 13.9086 104.675 13.7273 104.808C13.5513 104.941 13.3966 105.173 13.2633 105.504V108H12.6073ZM16.7986 108.096C16.4519 108.096 16.1372 108.016 15.8546 107.856C15.5719 107.691 15.3479 107.456 15.1826 107.152C15.0172 106.848 14.9346 106.485 14.9346 106.064C14.9346 105.637 15.0172 105.272 15.1826 104.968C15.3532 104.664 15.5719 104.429 15.8386 104.264C16.1052 104.099 16.3852 104.016 16.6786 104.016C17.1746 104.016 17.5559 104.181 17.8226 104.512C18.0946 104.843 18.2306 105.285 18.2306 105.84C18.2306 105.909 18.2279 105.979 18.2226 106.048C18.2226 106.112 18.2172 106.168 18.2066 106.216H15.5826C15.6092 106.627 15.7372 106.955 15.9666 107.2C16.2012 107.445 16.5052 107.568 16.8786 107.568C17.0652 107.568 17.2359 107.541 17.3906 107.488C17.5506 107.429 17.7026 107.355 17.8466 107.264L18.0786 107.696C17.9132 107.803 17.7239 107.896 17.5106 107.976C17.3026 108.056 17.0652 108.096 16.7986 108.096ZM15.5746 105.744H17.6546C17.6546 105.349 17.5692 105.051 17.3986 104.848C17.2332 104.64 16.9986 104.536 16.6946 104.536C16.4226 104.536 16.1772 104.643 15.9586 104.856C15.7452 105.064 15.6172 105.36 15.5746 105.744ZM20.6329 108V102.304H21.2889V103.856L21.2649 104.656C21.4515 104.48 21.6462 104.331 21.8489 104.208C22.0569 104.08 22.2942 104.016 22.5609 104.016C22.9715 104.016 23.2702 104.147 23.4569 104.408C23.6489 104.664 23.7449 105.04 23.7449 105.536V108H23.0889V105.624C23.0889 105.261 23.0302 104.997 22.9129 104.832C22.7955 104.667 22.6089 104.584 22.3529 104.584C22.1555 104.584 21.9769 104.635 21.8169 104.736C21.6622 104.837 21.4862 104.987 21.2889 105.184V108H20.6329ZM26.4804 108.096C26.1338 108.096 25.8191 108.016 25.5364 107.856C25.2538 107.691 25.0298 107.456 24.8644 107.152C24.6991 106.848 24.6164 106.485 24.6164 106.064C24.6164 105.637 24.6991 105.272 24.8644 104.968C25.0351 104.664 25.2538 104.429 25.5204 104.264C25.7871 104.099 26.0671 104.016 26.3604 104.016C26.8564 104.016 27.2378 104.181 27.5044 104.512C27.7764 104.843 27.9124 105.285 27.9124 105.84C27.9124 105.909 27.9098 105.979 27.9044 106.048C27.9044 106.112 27.8991 106.168 27.8884 106.216H25.2644C25.2911 106.627 25.4191 106.955 25.6484 107.2C25.8831 107.445 26.1871 107.568 26.5604 107.568C26.7471 107.568 26.9178 107.541 27.0724 107.488C27.2324 107.429 27.3844 107.355 27.5284 107.264L27.7604 107.696C27.5951 107.803 27.4058 107.896 27.1924 107.976C26.9844 108.056 26.7471 108.096 26.4804 108.096ZM25.2564 105.744H27.3364C27.3364 105.349 27.2511 105.051 27.0804 104.848C26.9151 104.64 26.6804 104.536 26.3764 104.536C26.1044 104.536 25.8591 104.643 25.6404 104.856C25.4271 105.064 25.2991 105.36 25.2564 105.744ZM29.5798 108.096C29.2545 108.096 28.9825 108 28.7638 107.808C28.5505 107.611 28.4438 107.339 28.4438 106.992C28.4438 106.565 28.6331 106.24 29.0118 106.016C29.3958 105.787 30.0011 105.627 30.8278 105.536C30.8278 105.371 30.8038 105.213 30.7558 105.064C30.7131 104.915 30.6331 104.795 30.5158 104.704C30.4038 104.608 30.2411 104.56 30.0278 104.56C29.8038 104.56 29.5931 104.603 29.3958 104.688C29.1985 104.773 29.0225 104.869 28.8678 104.976L28.6118 104.52C28.7931 104.403 29.0145 104.291 29.2758 104.184C29.5425 104.072 29.8305 104.016 30.1398 104.016C30.6145 104.016 30.9585 104.163 31.1718 104.456C31.3851 104.744 31.4918 105.131 31.4918 105.616V108H30.9478L30.8918 107.536H30.8678C30.6865 107.685 30.4865 107.816 30.2678 107.928C30.0545 108.04 29.8251 108.096 29.5798 108.096ZM29.7718 107.568C29.9585 107.568 30.1345 107.523 30.2998 107.432C30.4651 107.341 30.6411 107.213 30.8278 107.048V105.968C30.1825 106.048 29.7291 106.168 29.4678 106.328C29.2118 106.488 29.0838 106.693 29.0838 106.944C29.0838 107.163 29.1505 107.323 29.2838 107.424C29.4171 107.52 29.5798 107.568 29.7718 107.568ZM33.9631 108.096C33.4777 108.096 33.0884 107.92 32.7951 107.568C32.5017 107.211 32.3551 106.709 32.3551 106.064C32.3551 105.643 32.4324 105.28 32.5871 104.976C32.7471 104.667 32.9551 104.429 33.2111 104.264C33.4724 104.099 33.7497 104.016 34.0431 104.016C34.2671 104.016 34.4617 104.056 34.6271 104.136C34.7924 104.216 34.9604 104.325 35.1311 104.464L35.0991 103.8V102.304H35.7631V108H35.2191L35.1631 107.544H35.1391C34.9897 107.693 34.8137 107.824 34.6111 107.936C34.4084 108.043 34.1924 108.096 33.9631 108.096ZM34.1071 107.544C34.4484 107.544 34.7791 107.365 35.0991 107.008V104.976C34.9337 104.827 34.7737 104.723 34.6191 104.664C34.4697 104.6 34.3151 104.568 34.1551 104.568C33.9471 104.568 33.7577 104.632 33.5871 104.76C33.4217 104.883 33.2884 105.056 33.1871 105.28C33.0857 105.499 33.0351 105.757 33.0351 106.056C33.0351 106.52 33.1284 106.885 33.3151 107.152C33.5017 107.413 33.7657 107.544 34.1071 107.544ZM39.4566 109.64V108.256L39.4886 107.552C39.3339 107.701 39.1552 107.829 38.9526 107.936C38.7552 108.043 38.5446 108.096 38.3206 108.096C37.8352 108.096 37.4459 107.92 37.1526 107.568C36.8592 107.211 36.7126 106.709 36.7126 106.064C36.7126 105.643 36.7899 105.28 36.9446 104.976C37.1046 104.667 37.3126 104.429 37.5686 104.264C37.8299 104.099 38.1072 104.016 38.4006 104.016C38.6246 104.016 38.8219 104.056 38.9926 104.136C39.1632 104.211 39.3366 104.325 39.5126 104.48H39.5286L39.5926 104.112H40.1206V109.64H39.4566ZM38.4646 107.544C38.8059 107.544 39.1366 107.365 39.4566 107.008V104.976C39.2912 104.827 39.1312 104.723 38.9766 104.664C38.8272 104.6 38.6726 104.568 38.5126 104.568C38.3046 104.568 38.1152 104.632 37.9446 104.76C37.7792 104.883 37.6459 105.056 37.5446 105.28C37.4432 105.499 37.3926 105.757 37.3926 106.056C37.3926 106.52 37.4859 106.885 37.6726 107.152C37.8592 107.413 38.1232 107.544 38.4646 107.544ZM42.4861 108.096C42.0754 108.096 41.7741 107.968 41.5821 107.712C41.3901 107.451 41.2941 107.072 41.2941 106.576V104.112H41.9581V106.488C41.9581 106.851 42.0141 107.115 42.1261 107.28C42.2434 107.445 42.4301 107.528 42.6861 107.528C42.8887 107.528 43.0674 107.477 43.2221 107.376C43.3821 107.269 43.5527 107.101 43.7341 106.872V104.112H44.3901V108H43.8461L43.7901 107.392H43.7661C43.5847 107.605 43.3927 107.776 43.1901 107.904C42.9874 108.032 42.7527 108.096 42.4861 108.096ZM46.5176 108.096C46.1923 108.096 45.9203 108 45.7016 107.808C45.4883 107.611 45.3816 107.339 45.3816 106.992C45.3816 106.565 45.571 106.24 45.9496 106.016C46.3336 105.787 46.939 105.627 47.7656 105.536C47.7656 105.371 47.7416 105.213 47.6936 105.064C47.651 104.915 47.571 104.795 47.4536 104.704C47.3416 104.608 47.179 104.56 46.9656 104.56C46.7416 104.56 46.531 104.603 46.3336 104.688C46.1363 104.773 45.9603 104.869 45.8056 104.976L45.5496 104.52C45.731 104.403 45.9523 104.291 46.2136 104.184C46.4803 104.072 46.7683 104.016 47.0776 104.016C47.5523 104.016 47.8963 104.163 48.1096 104.456C48.323 104.744 48.4296 105.131 48.4296 105.616V108H47.8856L47.8296 107.536H47.8056C47.6243 107.685 47.4243 107.816 47.2056 107.928C46.9923 108.04 46.763 108.096 46.5176 108.096ZM46.7096 107.568C46.8963 107.568 47.0723 107.523 47.2376 107.432C47.403 107.341 47.579 107.213 47.7656 107.048V105.968C47.1203 106.048 46.667 106.168 46.4056 106.328C46.1496 106.488 46.0216 106.693 46.0216 106.944C46.0216 107.163 46.0883 107.323 46.2216 107.424C46.355 107.52 46.5176 107.568 46.7096 107.568ZM49.5729 108V104.112H50.1169L50.1729 104.816H50.1969C50.3302 104.571 50.4929 104.376 50.6849 104.232C50.8769 104.088 51.0822 104.016 51.3009 104.016C51.4555 104.016 51.5942 104.043 51.7169 104.096L51.5889 104.672C51.5249 104.651 51.4662 104.635 51.4129 104.624C51.3595 104.613 51.2929 104.608 51.2129 104.608C51.0475 104.608 50.8742 104.675 50.6929 104.808C50.5169 104.941 50.3622 105.173 50.2289 105.504V108H49.5729ZM53.4903 108.096C53.0743 108.096 52.7836 107.976 52.6183 107.736C52.4583 107.496 52.3783 107.184 52.3783 106.8V104.648H51.8023V104.152L52.4103 104.112L52.4903 103.024H53.0423V104.112H54.0903V104.648H53.0423V106.808C53.0423 107.048 53.085 107.235 53.1703 107.368C53.261 107.496 53.4183 107.56 53.6423 107.56C53.7116 107.56 53.7863 107.549 53.8663 107.528C53.9463 107.501 54.0183 107.477 54.0823 107.456L54.2103 107.952C54.1036 107.989 53.9863 108.021 53.8583 108.048C53.7356 108.08 53.613 108.096 53.4903 108.096ZM56.3561 108.096C56.0094 108.096 55.6947 108.016 55.4121 107.856C55.1294 107.691 54.9054 107.456 54.7401 107.152C54.5747 106.848 54.4921 106.485 54.4921 106.064C54.4921 105.637 54.5747 105.272 54.7401 104.968C54.9107 104.664 55.1294 104.429 55.3961 104.264C55.6627 104.099 55.9427 104.016 56.2361 104.016C56.7321 104.016 57.1134 104.181 57.3801 104.512C57.6521 104.843 57.7881 105.285 57.7881 105.84C57.7881 105.909 57.7854 105.979 57.7801 106.048C57.7801 106.112 57.7747 106.168 57.7641 106.216H55.1401C55.1667 106.627 55.2947 106.955 55.5241 107.2C55.7587 107.445 56.0627 107.568 56.4361 107.568C56.6227 107.568 56.7934 107.541 56.9481 107.488C57.1081 107.429 57.2601 107.355 57.4041 107.264L57.6361 107.696C57.4707 107.803 57.2814 107.896 57.0681 107.976C56.8601 108.056 56.6227 108.096 56.3561 108.096ZM55.1321 105.744H57.2121C57.2121 105.349 57.1267 105.051 56.9561 104.848C56.7907 104.64 56.5561 104.536 56.2521 104.536C55.9801 104.536 55.7347 104.643 55.5161 104.856C55.3027 105.064 55.1747 105.36 55.1321 105.744ZM58.6688 108V104.112H59.2128L59.2688 104.816H59.2928C59.4261 104.571 59.5888 104.376 59.7808 104.232C59.9728 104.088 60.1781 104.016 60.3968 104.016C60.5515 104.016 60.6901 104.043 60.8128 104.096L60.6848 104.672C60.6208 104.651 60.5621 104.635 60.5088 104.624C60.4555 104.613 60.3888 104.608 60.3088 104.608C60.1435 104.608 59.9701 104.675 59.7888 104.808C59.6128 104.941 59.4581 105.173 59.3248 105.504V108H58.6688ZM62.8601 108.096C62.5135 108.096 62.1988 108.016 61.9161 107.856C61.6335 107.691 61.4095 107.456 61.2441 107.152C61.0788 106.848 60.9961 106.485 60.9961 106.064C60.9961 105.637 61.0788 105.272 61.2441 104.968C61.4148 104.664 61.6335 104.429 61.9001 104.264C62.1668 104.099 62.4468 104.016 62.7401 104.016C63.2361 104.016 63.6175 104.181 63.8841 104.512C64.1561 104.843 64.2921 105.285 64.2921 105.84C64.2921 105.909 64.2895 105.979 64.2841 106.048C64.2841 106.112 64.2788 106.168 64.2681 106.216H61.6441C61.6708 106.627 61.7988 106.955 62.0281 107.2C62.2628 107.445 62.5668 107.568 62.9401 107.568C63.1268 107.568 63.2975 107.541 63.4521 107.488C63.6121 107.429 63.7641 107.355 63.9081 107.264L64.1401 107.696C63.9748 107.803 63.7855 107.896 63.5721 107.976C63.3641 108.056 63.1268 108.096 62.8601 108.096ZM61.6361 105.744H63.7161C63.7161 105.349 63.6308 105.051 63.4601 104.848C63.2948 104.64 63.0601 104.536 62.7561 104.536C62.4841 104.536 62.2388 104.643 62.0201 104.856C61.8068 105.064 61.6788 105.36 61.6361 105.744ZM66.5009 108.096C66.0155 108.096 65.6262 107.92 65.3329 107.568C65.0395 107.211 64.8929 106.709 64.8929 106.064C64.8929 105.643 64.9702 105.28 65.1249 104.976C65.2849 104.667 65.4929 104.429 65.7489 104.264C66.0102 104.099 66.2875 104.016 66.5809 104.016C66.8049 104.016 66.9995 104.056 67.1649 104.136C67.3302 104.216 67.4982 104.325 67.6689 104.464L67.6369 103.8V102.304H68.3009V108H67.7569L67.7009 107.544H67.6769C67.5275 107.693 67.3515 107.824 67.1489 107.936C66.9462 108.043 66.7302 108.096 66.5009 108.096ZM66.6449 107.544C66.9862 107.544 67.3169 107.365 67.6369 107.008V104.976C67.4715 104.827 67.3115 104.723 67.1569 104.664C67.0075 104.6 66.8529 104.568 66.6929 104.568C66.4849 104.568 66.2955 104.632 66.1249 104.76C65.9595 104.883 65.8262 105.056 65.7249 105.28C65.6235 105.499 65.5729 105.757 65.5729 106.056C65.5729 106.52 65.6662 106.885 65.8529 107.152C66.0395 107.413 66.3035 107.544 66.6449 107.544ZM71.0519 108V104.112H71.7079V108H71.0519ZM71.3879 103.312C71.2599 103.312 71.1533 103.275 71.0679 103.2C70.9879 103.12 70.9479 103.013 70.9479 102.88C70.9479 102.752 70.9879 102.648 71.0679 102.568C71.1533 102.488 71.2599 102.448 71.3879 102.448C71.5159 102.448 71.6199 102.488 71.6999 102.568C71.7853 102.648 71.8279 102.752 71.8279 102.88C71.8279 103.013 71.7853 103.12 71.6999 103.2C71.6199 103.275 71.5159 103.312 71.3879 103.312ZM72.9407 108V104.112H73.4847L73.5407 104.672H73.5647C73.7514 104.485 73.9487 104.331 74.1567 104.208C74.3647 104.08 74.602 104.016 74.8687 104.016C75.2794 104.016 75.578 104.147 75.7647 104.408C75.9567 104.664 76.0527 105.04 76.0527 105.536V108H75.3967V105.624C75.3967 105.261 75.338 104.997 75.2207 104.832C75.1034 104.667 74.9167 104.584 74.6607 104.584C74.4634 104.584 74.2847 104.635 74.1247 104.736C73.97 104.837 73.794 104.987 73.5967 105.184V108H72.9407ZM79.9812 108.096C79.5652 108.096 79.2746 107.976 79.1092 107.736C78.9492 107.496 78.8692 107.184 78.8692 106.8V104.648H78.2932V104.152L78.9012 104.112L78.9812 103.024H79.5332V104.112H80.5812V104.648H79.5332V106.808C79.5332 107.048 79.5759 107.235 79.6612 107.368C79.7519 107.496 79.9092 107.56 80.1332 107.56C80.2026 107.56 80.2772 107.549 80.3572 107.528C80.4372 107.501 80.5092 107.477 80.5732 107.456L80.7012 107.952C80.5946 107.989 80.4772 108.021 80.3492 108.048C80.2266 108.08 80.1039 108.096 79.9812 108.096ZM81.3804 108V102.304H82.0364V103.856L82.0124 104.656C82.199 104.48 82.3937 104.331 82.5964 104.208C82.8044 104.08 83.0417 104.016 83.3084 104.016C83.719 104.016 84.0177 104.147 84.2044 104.408C84.3964 104.664 84.4924 105.04 84.4924 105.536V108H83.8364V105.624C83.8364 105.261 83.7777 104.997 83.6604 104.832C83.543 104.667 83.3564 104.584 83.1004 104.584C82.903 104.584 82.7244 104.635 82.5644 104.736C82.4097 104.837 82.2337 104.987 82.0364 105.184V108H81.3804ZM87.2279 108.096C86.8813 108.096 86.5666 108.016 86.2839 107.856C86.0013 107.691 85.7773 107.456 85.6119 107.152C85.4466 106.848 85.3639 106.485 85.3639 106.064C85.3639 105.637 85.4466 105.272 85.6119 104.968C85.7826 104.664 86.0013 104.429 86.2679 104.264C86.5346 104.099 86.8146 104.016 87.1079 104.016C87.6039 104.016 87.9853 104.181 88.2519 104.512C88.5239 104.843 88.6599 105.285 88.6599 105.84C88.6599 105.909 88.6573 105.979 88.6519 106.048C88.6519 106.112 88.6466 106.168 88.6359 106.216H86.0119C86.0386 106.627 86.1666 106.955 86.3959 107.2C86.6306 107.445 86.9346 107.568 87.3079 107.568C87.4946 107.568 87.6653 107.541 87.8199 107.488C87.9799 107.429 88.1319 107.355 88.2759 107.264L88.5079 107.696C88.3426 107.803 88.1533 107.896 87.9399 107.976C87.7319 108.056 87.4946 108.096 87.2279 108.096ZM86.0039 105.744H88.0839C88.0839 105.349 87.9986 105.051 87.8279 104.848C87.6626 104.64 87.4279 104.536 87.1239 104.536C86.8519 104.536 86.6066 104.643 86.3879 104.856C86.1746 105.064 86.0466 105.36 86.0039 105.744ZM92.9903 108.096C92.6329 108.096 92.3103 108.024 92.0223 107.88C91.7396 107.736 91.5156 107.499 91.3503 107.168C91.1849 106.837 91.1023 106.392 91.1023 105.832V102.752H91.7663V105.848C91.7663 106.269 91.8196 106.603 91.9263 106.848C92.0383 107.088 92.1849 107.259 92.3663 107.36C92.5529 107.461 92.7609 107.512 92.9903 107.512C93.2249 107.512 93.4356 107.461 93.6223 107.36C93.8089 107.259 93.9556 107.088 94.0623 106.848C94.1743 106.603 94.2303 106.269 94.2303 105.848V102.752H94.8703V105.832C94.8703 106.392 94.7876 106.837 94.6223 107.168C94.4569 107.499 94.2329 107.736 93.9503 107.88C93.6676 108.024 93.3476 108.096 92.9903 108.096ZM97.5804 108.096C97.2124 108.096 96.871 108.027 96.5564 107.888C96.2417 107.744 95.9697 107.555 95.7404 107.32L96.1404 106.856C96.327 107.053 96.5457 107.213 96.7964 107.336C97.0524 107.453 97.3164 107.512 97.5884 107.512C97.935 107.512 98.2044 107.435 98.3964 107.28C98.5884 107.12 98.6844 106.912 98.6844 106.656C98.6844 106.475 98.6444 106.331 98.5644 106.224C98.4897 106.117 98.3857 106.027 98.2524 105.952C98.1244 105.877 97.9777 105.803 97.8124 105.728L97.0604 105.4C96.895 105.331 96.7297 105.24 96.5644 105.128C96.4044 105.016 96.2684 104.872 96.1564 104.696C96.0497 104.52 95.9964 104.304 95.9964 104.048C95.9964 103.781 96.0657 103.544 96.2044 103.336C96.3484 103.123 96.5457 102.957 96.7964 102.84C97.047 102.717 97.3297 102.656 97.6444 102.656C97.959 102.656 98.2497 102.717 98.5164 102.84C98.783 102.957 99.0097 103.112 99.1964 103.304L98.8364 103.736C98.6764 103.581 98.4977 103.461 98.3004 103.376C98.1084 103.285 97.8897 103.24 97.6444 103.24C97.351 103.24 97.1137 103.309 96.9324 103.448C96.7564 103.587 96.6684 103.773 96.6684 104.008C96.6684 104.173 96.711 104.312 96.7964 104.424C96.887 104.531 96.999 104.619 97.1324 104.688C97.2657 104.757 97.4017 104.821 97.5404 104.88L98.2844 105.2C98.487 105.285 98.6684 105.389 98.8284 105.512C98.9937 105.629 99.1244 105.776 99.2204 105.952C99.3164 106.123 99.3644 106.339 99.3644 106.6C99.3644 106.877 99.2924 107.131 99.1484 107.36C99.0044 107.584 98.799 107.763 98.5324 107.896C98.2657 108.029 97.9484 108.096 97.5804 108.096Z" fill="black"/>
</svg>
