<svg width="43" height="120" viewBox="0 0 43 120" fill="none" xmlns="http://www.w3.org/2000/svg">
<path d="M2.496 91C2.176 91 2.016 90.84 2.016 90.52V79.672C2.016 79.544 2.08 79.416 2.208 79.288L25.92 46.744C26.368 46.168 26.72 45.432 26.976 44.536C27.296 43.576 27.456 42.744 27.456 42.04C27.456 40.184 26.784 38.488 25.44 36.952C24.096 35.352 22.4 34.552 20.352 34.552C18.368 34.552 16.672 35.32 15.264 36.856C13.92 38.328 13.248 40.216 13.248 42.52V47.224C13.248 47.544 13.088 47.704 12.768 47.704H2.016C1.76 47.704 1.632 47.544 1.632 47.224V42.52C1.632 38.936 2.496 35.672 4.224 32.728C6.016 29.784 8.32 27.448 11.136 25.72C14.016 23.992 17.088 23.128 20.352 23.128C23.808 23.128 26.944 24.024 29.76 25.816C32.576 27.544 34.816 29.848 36.48 32.728C38.208 35.608 39.072 38.712 39.072 42.04C39.072 44.152 38.688 46.296 37.92 48.472C37.216 50.648 36.224 52.568 34.944 54.232L16.704 79.288H38.304C38.56 79.288 38.688 79.416 38.688 79.672V90.52C38.688 90.84 38.56 91 38.304 91H2.496Z" fill="black"/>
<path d="M2.552 108.096C2.22667 108.096 1.95467 108 1.736 107.808C1.52267 107.611 1.416 107.339 1.416 106.992C1.416 106.565 1.60533 106.24 1.984 106.016C2.368 105.787 2.97333 105.627 3.8 105.536C3.8 105.371 3.776 105.213 3.728 105.064C3.68533 104.915 3.60533 104.795 3.488 104.704C3.376 104.608 3.21333 104.56 3 104.56C2.776 104.56 2.56533 104.603 2.368 104.688C2.17067 104.773 1.99467 104.869 1.84 104.976L1.584 104.52C1.76533 104.403 1.98667 104.291 2.248 104.184C2.51467 104.072 2.80267 104.016 3.112 104.016C3.58667 104.016 3.93067 104.163 4.144 104.456C4.35733 104.744 4.464 105.131 4.464 105.616V108H3.92L3.864 107.536H3.84C3.65867 107.685 3.45867 107.816 3.24 107.928C3.02667 108.04 2.79733 108.096 2.552 108.096ZM2.744 107.568C2.93067 107.568 3.10667 107.523 3.272 107.432C3.43733 107.341 3.61333 107.213 3.8 107.048V105.968C3.15467 106.048 2.70133 106.168 2.44 106.328C2.184 106.488 2.056 106.693 2.056 106.944C2.056 107.163 2.12267 107.323 2.256 107.424C2.38933 107.52 2.552 107.568 2.744 107.568ZM5.60725 108V104.112H6.15125L6.20725 104.816H6.23125C6.36458 104.571 6.52725 104.376 6.71925 104.232C6.91125 104.088 7.11658 104.016 7.33525 104.016C7.48992 104.016 7.62858 104.043 7.75125 104.096L7.62325 104.672C7.55925 104.651 7.50058 104.635 7.44725 104.624C7.39392 104.613 7.32725 104.608 7.24725 104.608C7.08192 104.608 6.90858 104.675 6.72725 104.808C6.55125 104.941 6.39658 105.173 6.26325 105.504V108H5.60725ZM9.79856 108.096C9.4519 108.096 9.13723 108.016 8.85456 107.856C8.5719 107.691 8.3479 107.456 8.18256 107.152C8.01723 106.848 7.93456 106.485 7.93456 106.064C7.93456 105.637 8.01723 105.272 8.18256 104.968C8.35323 104.664 8.5719 104.429 8.83856 104.264C9.10523 104.099 9.38523 104.016 9.67856 104.016C10.1746 104.016 10.5559 104.181 10.8226 104.512C11.0946 104.843 11.2306 105.285 11.2306 105.84C11.2306 105.909 11.2279 105.979 11.2226 106.048C11.2226 106.112 11.2172 106.168 11.2066 106.216H8.58256C8.60923 106.627 8.73723 106.955 8.96656 107.2C9.20123 107.445 9.50523 107.568 9.87856 107.568C10.0652 107.568 10.2359 107.541 10.3906 107.488C10.5506 107.429 10.7026 107.355 10.8466 107.264L11.0786 107.696C10.9132 107.803 10.7239 107.896 10.5106 107.976C10.3026 108.056 10.0652 108.096 9.79856 108.096ZM8.57456 105.744H10.6546C10.6546 105.349 10.5692 105.051 10.3986 104.848C10.2332 104.64 9.99856 104.536 9.69456 104.536C9.42256 104.536 9.17723 104.643 8.95856 104.856C8.74523 105.064 8.61723 105.36 8.57456 105.744ZM14.7689 108.096C14.3582 108.096 14.0569 107.968 13.8649 107.712C13.6729 107.451 13.5769 107.072 13.5769 106.576V104.112H14.2409V106.488C14.2409 106.851 14.2969 107.115 14.4089 107.28C14.5262 107.445 14.7129 107.528 14.9689 107.528C15.1715 107.528 15.3502 107.477 15.5049 107.376C15.6649 107.269 15.8355 107.101 16.0169 106.872V104.112H16.6729V108H16.1289L16.0729 107.392H16.0489C15.8675 107.605 15.6755 107.776 15.4729 107.904C15.2702 108.032 15.0355 108.096 14.7689 108.096ZM17.9044 108V104.112H18.4484L18.5044 104.672H18.5284C18.7151 104.485 18.9124 104.331 19.1204 104.208C19.3284 104.08 19.5658 104.016 19.8324 104.016C20.2431 104.016 20.5418 104.147 20.7284 104.408C20.9204 104.664 21.0164 105.04 21.0164 105.536V108H20.3604V105.624C20.3604 105.261 20.3018 104.997 20.1844 104.832C20.0671 104.667 19.8804 104.584 19.6244 104.584C19.4271 104.584 19.2484 104.635 19.0884 104.736C18.9338 104.837 18.7578 104.987 18.5604 105.184V108H17.9044ZM22.1994 108V104.112H22.8554V108H22.1994ZM22.5354 103.312C22.4074 103.312 22.3008 103.275 22.2154 103.2C22.1354 103.12 22.0954 103.013 22.0954 102.88C22.0954 102.752 22.1354 102.648 22.2154 102.568C22.3008 102.488 22.4074 102.448 22.5354 102.448C22.6634 102.448 22.7674 102.488 22.8474 102.568C22.9328 102.648 22.9754 102.752 22.9754 102.88C22.9754 103.013 22.9328 103.12 22.8474 103.2C22.7674 103.275 22.6634 103.312 22.5354 103.312ZM25.6242 108.096C25.2829 108.096 24.9735 108.016 24.6962 107.856C24.4189 107.696 24.2002 107.464 24.0402 107.16C23.8802 106.856 23.8002 106.491 23.8002 106.064C23.8002 105.627 23.8855 105.256 24.0562 104.952C24.2322 104.648 24.4615 104.416 24.7442 104.256C25.0322 104.096 25.3415 104.016 25.6722 104.016C25.9282 104.016 26.1469 104.061 26.3282 104.152C26.5149 104.243 26.6749 104.349 26.8082 104.472L26.4722 104.904C26.3602 104.803 26.2402 104.72 26.1122 104.656C25.9895 104.592 25.8509 104.56 25.6962 104.56C25.4615 104.56 25.2509 104.624 25.0642 104.752C24.8829 104.875 24.7389 105.051 24.6322 105.28C24.5309 105.504 24.4802 105.765 24.4802 106.064C24.4802 106.507 24.5895 106.867 24.8082 107.144C25.0322 107.416 25.3229 107.552 25.6802 107.552C25.8615 107.552 26.0295 107.515 26.1842 107.44C26.3389 107.36 26.4749 107.267 26.5922 107.16L26.8802 107.6C26.7042 107.755 26.5095 107.877 26.2962 107.968C26.0829 108.053 25.8589 108.096 25.6242 108.096ZM28.9968 108.096C28.6821 108.096 28.3861 108.016 28.1088 107.856C27.8368 107.696 27.6154 107.464 27.4448 107.16C27.2794 106.856 27.1968 106.491 27.1968 106.064C27.1968 105.627 27.2794 105.256 27.4448 104.952C27.6154 104.648 27.8368 104.416 28.1088 104.256C28.3861 104.096 28.6821 104.016 28.9968 104.016C29.3168 104.016 29.6128 104.096 29.8848 104.256C30.1568 104.416 30.3754 104.648 30.5408 104.952C30.7114 105.256 30.7968 105.627 30.7968 106.064C30.7968 106.491 30.7114 106.856 30.5408 107.16C30.3754 107.464 30.1568 107.696 29.8848 107.856C29.6128 108.016 29.3168 108.096 28.9968 108.096ZM28.9968 107.552C29.3328 107.552 29.6021 107.416 29.8048 107.144C30.0128 106.867 30.1168 106.507 30.1168 106.064C30.1168 105.616 30.0128 105.253 29.8048 104.976C29.6021 104.699 29.3328 104.56 28.9968 104.56C28.6661 104.56 28.3968 104.699 28.1888 104.976C27.9808 105.253 27.8768 105.616 27.8768 106.064C27.8768 106.507 27.9808 106.867 28.1888 107.144C28.3968 107.416 28.6661 107.552 28.9968 107.552ZM31.7407 108V104.112H32.2847L32.3407 104.816H32.3647C32.498 104.571 32.6607 104.376 32.8527 104.232C33.0447 104.088 33.25 104.016 33.4687 104.016C33.6234 104.016 33.762 104.043 33.8847 104.096L33.7567 104.672C33.6927 104.651 33.634 104.635 33.5807 104.624C33.5274 104.613 33.4607 104.608 33.3807 104.608C33.2154 104.608 33.042 104.675 32.8607 104.808C32.6847 104.941 32.53 105.173 32.3967 105.504V108H31.7407ZM34.4341 108V104.112H34.9781L35.0341 104.672H35.0581C35.2448 104.485 35.4421 104.331 35.6501 104.208C35.8581 104.08 36.0955 104.016 36.3621 104.016C36.7728 104.016 37.0715 104.147 37.2581 104.408C37.4501 104.664 37.5461 105.04 37.5461 105.536V108H36.8901V105.624C36.8901 105.261 36.8315 104.997 36.7141 104.832C36.5968 104.667 36.4101 104.584 36.1541 104.584C35.9568 104.584 35.7781 104.635 35.6181 104.736C35.4635 104.837 35.2875 104.987 35.0901 105.184V108H34.4341ZM39.7451 108.096C39.4678 108.096 39.2038 108.045 38.9531 107.944C38.7025 107.837 38.4838 107.709 38.2971 107.56L38.6251 107.12C38.7958 107.253 38.9718 107.365 39.1531 107.456C39.3345 107.541 39.5398 107.584 39.7691 107.584C40.0251 107.584 40.2171 107.525 40.3451 107.408C40.4731 107.285 40.5371 107.141 40.5371 106.976C40.5371 106.843 40.4918 106.731 40.4011 106.64C40.3158 106.549 40.2038 106.475 40.0651 106.416C39.9318 106.352 39.7931 106.293 39.6491 106.24C39.4678 106.171 39.2891 106.093 39.1131 106.008C38.9371 105.917 38.7931 105.803 38.6811 105.664C38.5691 105.52 38.5131 105.339 38.5131 105.12C38.5131 104.805 38.6305 104.544 38.8651 104.336C39.1051 104.123 39.4358 104.016 39.8571 104.016C40.0971 104.016 40.3211 104.059 40.5291 104.144C40.7371 104.229 40.9158 104.333 41.0651 104.456L40.7451 104.872C40.6118 104.771 40.4731 104.688 40.3291 104.624C40.1851 104.56 40.0278 104.528 39.8571 104.528C39.6118 104.528 39.4305 104.584 39.3131 104.696C39.2011 104.808 39.1451 104.939 39.1451 105.088C39.1451 105.211 39.1851 105.312 39.2651 105.392C39.3451 105.467 39.4491 105.533 39.5771 105.592C39.7051 105.645 39.8411 105.701 39.9851 105.76C40.1718 105.829 40.3558 105.909 40.5371 106C40.7185 106.085 40.8678 106.203 40.9851 106.352C41.1078 106.496 41.1691 106.691 41.1691 106.936C41.1691 107.144 41.1131 107.336 41.0011 107.512C40.8945 107.688 40.7345 107.829 40.5211 107.936C40.3131 108.043 40.0545 108.096 39.7451 108.096Z" fill="black"/>
</svg>
