<svg width="62" height="120" viewBox="0 0 62 120" fill="none" xmlns="http://www.w3.org/2000/svg">
<path d="M4.32 91C4 91 3.84 90.84 3.84 90.52L3.936 24.568C3.936 24.312 4.064 24.184 4.32 24.184H15.072C15.328 24.184 15.456 24.312 15.456 24.568L15.552 90.52C15.552 90.84 15.424 91 15.168 91H4.32ZM41.1803 91.96C37.7883 91.96 34.6523 91.096 31.7723 89.368C28.8923 87.64 26.5883 85.368 24.8603 82.552C23.1323 79.672 22.2683 76.568 22.2683 73.24V70.36C22.2683 70.104 22.4283 69.976 22.7483 69.976H33.5963C33.8523 69.976 33.9803 70.104 33.9803 70.36V72.568C33.9803 74.744 34.6843 76.568 36.0923 78.04C37.5003 79.512 39.1963 80.248 41.1803 80.248C43.1643 80.248 44.8283 79.512 46.1723 78.04C47.5803 76.504 48.2843 74.68 48.2843 72.568V66.04C48.2843 64.056 47.5483 62.392 46.0763 61.048C44.6683 59.704 42.9083 59.032 40.7963 59.032C38.0443 59.032 35.7723 60.12 33.9803 62.296L33.7883 62.584L23.5163 61.816C23.1963 61.816 23.0363 61.656 23.0363 61.336L24.1883 35.032L24.7643 24.568C24.7643 24.312 24.8923 24.184 25.1483 24.184H57.4043C57.6603 24.184 57.7883 24.312 57.7883 24.568V35.032C57.7883 35.352 57.6603 35.512 57.4043 35.512H34.9403L34.4603 48.76C35.2283 48.376 36.2203 48.056 37.4363 47.8C38.7163 47.544 39.8683 47.416 40.8923 47.416C44.3483 47.416 47.5163 48.28 50.3963 50.008C53.3403 51.672 55.6763 53.912 57.4043 56.728C59.1323 59.544 59.9963 62.648 59.9963 66.04V72.568C59.9963 76.088 59.1323 79.32 57.4043 82.264C55.7403 85.208 53.4683 87.576 50.5883 89.368C47.7723 91.096 44.6363 91.96 41.1803 91.96Z" fill="black"/>
<path d="M3.272 108L2.192 104.112H2.864L3.44 106.36C3.48267 106.541 3.52267 106.723 3.56 106.904C3.59733 107.08 3.63467 107.259 3.672 107.44H3.704C3.74667 107.259 3.78933 107.08 3.832 106.904C3.87467 106.723 3.92 106.541 3.968 106.36L4.568 104.112H5.208L5.816 106.36C5.864 106.541 5.90933 106.723 5.952 106.904C6 107.08 6.04533 107.259 6.088 107.44H6.12C6.16267 107.259 6.20267 107.08 6.24 106.904C6.28267 106.723 6.32267 106.541 6.36 106.36L6.928 104.112H7.552L6.512 108H5.712L5.152 105.912C5.104 105.725 5.05867 105.541 5.016 105.36C4.97867 105.179 4.936 104.989 4.888 104.792H4.856C4.81333 104.989 4.77067 105.181 4.728 105.368C4.68533 105.549 4.63733 105.733 4.584 105.92L4.04 108H3.272ZM9.86294 108.096C9.51627 108.096 9.2016 108.016 8.91894 107.856C8.63627 107.691 8.41227 107.456 8.24694 107.152C8.0816 106.848 7.99894 106.485 7.99894 106.064C7.99894 105.637 8.0816 105.272 8.24694 104.968C8.4176 104.664 8.63627 104.429 8.90294 104.264C9.1696 104.099 9.4496 104.016 9.74294 104.016C10.2389 104.016 10.6203 104.181 10.8869 104.512C11.1589 104.843 11.2949 105.285 11.2949 105.84C11.2949 105.909 11.2923 105.979 11.2869 106.048C11.2869 106.112 11.2816 106.168 11.2709 106.216H8.64694C8.6736 106.627 8.8016 106.955 9.03094 107.2C9.2656 107.445 9.5696 107.568 9.94294 107.568C10.1296 107.568 10.3003 107.541 10.4549 107.488C10.6149 107.429 10.7669 107.355 10.9109 107.264L11.1429 107.696C10.9776 107.803 10.7883 107.896 10.5749 107.976C10.3669 108.056 10.1296 108.096 9.86294 108.096ZM8.63894 105.744H10.7189C10.7189 105.349 10.6336 105.051 10.4629 104.848C10.2976 104.64 10.0629 104.536 9.75894 104.536C9.48694 104.536 9.2416 104.643 9.02294 104.856C8.8096 105.064 8.6816 105.36 8.63894 105.744ZM12.1757 108V104.112H12.7197L12.7757 104.816H12.7997C12.933 104.571 13.0957 104.376 13.2877 104.232C13.4797 104.088 13.685 104.016 13.9037 104.016C14.0584 104.016 14.197 104.043 14.3197 104.096L14.1917 104.672C14.1277 104.651 14.069 104.635 14.0157 104.624C13.9624 104.613 13.8957 104.608 13.8157 104.608C13.6504 104.608 13.477 104.675 13.2957 104.808C13.1197 104.941 12.965 105.173 12.8317 105.504V108H12.1757ZM16.367 108.096C16.0203 108.096 15.7057 108.016 15.423 107.856C15.1403 107.691 14.9163 107.456 14.751 107.152C14.5857 106.848 14.503 106.485 14.503 106.064C14.503 105.637 14.5857 105.272 14.751 104.968C14.9217 104.664 15.1403 104.429 15.407 104.264C15.6737 104.099 15.9537 104.016 16.247 104.016C16.743 104.016 17.1243 104.181 17.391 104.512C17.663 104.843 17.799 105.285 17.799 105.84C17.799 105.909 17.7963 105.979 17.791 106.048C17.791 106.112 17.7857 106.168 17.775 106.216H15.151C15.1777 106.627 15.3057 106.955 15.535 107.2C15.7697 107.445 16.0737 107.568 16.447 107.568C16.6337 107.568 16.8043 107.541 16.959 107.488C17.119 107.429 17.271 107.355 17.415 107.264L17.647 107.696C17.4817 107.803 17.2923 107.896 17.079 107.976C16.871 108.056 16.6337 108.096 16.367 108.096ZM15.143 105.744H17.223C17.223 105.349 17.1377 105.051 16.967 104.848C16.8017 104.64 16.567 104.536 16.263 104.536C15.991 104.536 15.7457 104.643 15.527 104.856C15.3137 105.064 15.1857 105.36 15.143 105.744ZM21.0973 108.096C20.772 108.096 20.5 108 20.2813 107.808C20.068 107.611 19.9613 107.339 19.9613 106.992C19.9613 106.565 20.1506 106.24 20.5293 106.016C20.9133 105.787 21.5186 105.627 22.3453 105.536C22.3453 105.371 22.3213 105.213 22.2733 105.064C22.2306 104.915 22.1506 104.795 22.0333 104.704C21.9213 104.608 21.7586 104.56 21.5453 104.56C21.3213 104.56 21.1106 104.603 20.9133 104.688C20.716 104.773 20.54 104.869 20.3853 104.976L20.1293 104.52C20.3106 104.403 20.532 104.291 20.7933 104.184C21.06 104.072 21.348 104.016 21.6573 104.016C22.132 104.016 22.476 104.163 22.6893 104.456C22.9026 104.744 23.0093 105.131 23.0093 105.616V108H22.4653L22.4093 107.536H22.3853C22.204 107.685 22.004 107.816 21.7853 107.928C21.572 108.04 21.3426 108.096 21.0973 108.096ZM21.2893 107.568C21.476 107.568 21.652 107.523 21.8173 107.432C21.9826 107.341 22.1586 107.213 22.3453 107.048V105.968C21.7 106.048 21.2466 106.168 20.9853 106.328C20.7293 106.488 20.6013 106.693 20.6013 106.944C20.6013 107.163 20.668 107.323 20.8013 107.424C20.9346 107.52 21.0973 107.568 21.2893 107.568ZM25.6886 108.096C25.3472 108.096 25.0379 108.016 24.7606 107.856C24.4832 107.696 24.2646 107.464 24.1046 107.16C23.9446 106.856 23.8646 106.491 23.8646 106.064C23.8646 105.627 23.9499 105.256 24.1206 104.952C24.2966 104.648 24.5259 104.416 24.8086 104.256C25.0966 104.096 25.4059 104.016 25.7366 104.016C25.9926 104.016 26.2112 104.061 26.3926 104.152C26.5792 104.243 26.7392 104.349 26.8726 104.472L26.5366 104.904C26.4246 104.803 26.3046 104.72 26.1766 104.656C26.0539 104.592 25.9152 104.56 25.7606 104.56C25.5259 104.56 25.3152 104.624 25.1286 104.752C24.9472 104.875 24.8032 105.051 24.6966 105.28C24.5952 105.504 24.5446 105.765 24.5446 106.064C24.5446 106.507 24.6539 106.867 24.8726 107.144C25.0966 107.416 25.3872 107.552 25.7446 107.552C25.9259 107.552 26.0939 107.515 26.2486 107.44C26.4032 107.36 26.5392 107.267 26.6566 107.16L26.9446 107.6C26.7686 107.755 26.5739 107.877 26.3606 107.968C26.1472 108.053 25.9232 108.096 25.6886 108.096ZM29.0851 108.096C28.7438 108.096 28.4345 108.016 28.1571 107.856C27.8798 107.696 27.6611 107.464 27.5011 107.16C27.3411 106.856 27.2611 106.491 27.2611 106.064C27.2611 105.627 27.3465 105.256 27.5171 104.952C27.6931 104.648 27.9225 104.416 28.2051 104.256C28.4931 104.096 28.8025 104.016 29.1331 104.016C29.3891 104.016 29.6078 104.061 29.7891 104.152C29.9758 104.243 30.1358 104.349 30.2691 104.472L29.9331 104.904C29.8211 104.803 29.7011 104.72 29.5731 104.656C29.4505 104.592 29.3118 104.56 29.1571 104.56C28.9225 104.56 28.7118 104.624 28.5251 104.752C28.3438 104.875 28.1998 105.051 28.0931 105.28C27.9918 105.504 27.9411 105.765 27.9411 106.064C27.9411 106.507 28.0505 106.867 28.2691 107.144C28.4931 107.416 28.7838 107.552 29.1411 107.552C29.3225 107.552 29.4905 107.515 29.6451 107.44C29.7998 107.36 29.9358 107.267 30.0531 107.16L30.3411 107.6C30.1651 107.755 29.9705 107.877 29.7571 107.968C29.5438 108.053 29.3198 108.096 29.0851 108.096ZM32.5217 108.096C32.175 108.096 31.8604 108.016 31.5777 107.856C31.295 107.691 31.071 107.456 30.9057 107.152C30.7404 106.848 30.6577 106.485 30.6577 106.064C30.6577 105.637 30.7404 105.272 30.9057 104.968C31.0764 104.664 31.295 104.429 31.5617 104.264C31.8284 104.099 32.1084 104.016 32.4017 104.016C32.8977 104.016 33.279 104.181 33.5457 104.512C33.8177 104.843 33.9537 105.285 33.9537 105.84C33.9537 105.909 33.951 105.979 33.9457 106.048C33.9457 106.112 33.9404 106.168 33.9297 106.216H31.3057C31.3324 106.627 31.4604 106.955 31.6897 107.2C31.9244 107.445 32.2284 107.568 32.6017 107.568C32.7884 107.568 32.959 107.541 33.1137 107.488C33.2737 107.429 33.4257 107.355 33.5697 107.264L33.8017 107.696C33.6364 107.803 33.447 107.896 33.2337 107.976C33.0257 108.056 32.7884 108.096 32.5217 108.096ZM31.2977 105.744H33.3777C33.3777 105.349 33.2924 105.051 33.1217 104.848C32.9564 104.64 32.7217 104.536 32.4177 104.536C32.1457 104.536 31.9004 104.643 31.6817 104.856C31.4684 105.064 31.3404 105.36 31.2977 105.744ZM35.5304 108.096C35.2851 108.096 35.1064 108.021 34.9944 107.872C34.8878 107.717 34.8344 107.499 34.8344 107.216V102.304H35.4904V107.264C35.4904 107.365 35.5091 107.44 35.5464 107.488C35.5838 107.531 35.6264 107.552 35.6744 107.552C35.6958 107.552 35.7144 107.552 35.7304 107.552C35.7518 107.547 35.7811 107.541 35.8184 107.536L35.9064 108.032C35.8638 108.053 35.8131 108.069 35.7544 108.08C35.6958 108.091 35.6211 108.096 35.5304 108.096ZM38.3695 108.096C38.0228 108.096 37.7082 108.016 37.4255 107.856C37.1428 107.691 36.9188 107.456 36.7535 107.152C36.5882 106.848 36.5055 106.485 36.5055 106.064C36.5055 105.637 36.5882 105.272 36.7535 104.968C36.9242 104.664 37.1428 104.429 37.4095 104.264C37.6762 104.099 37.9562 104.016 38.2495 104.016C38.7455 104.016 39.1268 104.181 39.3935 104.512C39.6655 104.843 39.8015 105.285 39.8015 105.84C39.8015 105.909 39.7988 105.979 39.7935 106.048C39.7935 106.112 39.7882 106.168 39.7775 106.216H37.1535C37.1802 106.627 37.3082 106.955 37.5375 107.2C37.7722 107.445 38.0762 107.568 38.4495 107.568C38.6362 107.568 38.8068 107.541 38.9615 107.488C39.1215 107.429 39.2735 107.355 39.4175 107.264L39.6495 107.696C39.4842 107.803 39.2948 107.896 39.0815 107.976C38.8735 108.056 38.6362 108.096 38.3695 108.096ZM37.1455 105.744H39.2255C39.2255 105.349 39.1402 105.051 38.9695 104.848C38.8042 104.64 38.5695 104.536 38.2655 104.536C37.9935 104.536 37.7482 104.643 37.5295 104.856C37.3162 105.064 37.1882 105.36 37.1455 105.744ZM40.6822 108V104.112H41.2262L41.2822 104.816H41.3062C41.4396 104.571 41.6022 104.376 41.7942 104.232C41.9862 104.088 42.1916 104.016 42.4102 104.016C42.5649 104.016 42.7036 104.043 42.8262 104.096L42.6982 104.672C42.6342 104.651 42.5756 104.635 42.5222 104.624C42.4689 104.613 42.4022 104.608 42.3222 104.608C42.1569 104.608 41.9836 104.675 41.8022 104.808C41.6262 104.941 41.4716 105.173 41.3382 105.504V108H40.6822ZM44.0764 108.096C43.751 108.096 43.479 108 43.2604 107.808C43.047 107.611 42.9404 107.339 42.9404 106.992C42.9404 106.565 43.1297 106.24 43.5084 106.016C43.8924 105.787 44.4977 105.627 45.3244 105.536C45.3244 105.371 45.3004 105.213 45.2524 105.064C45.2097 104.915 45.1297 104.795 45.0124 104.704C44.9004 104.608 44.7377 104.56 44.5244 104.56C44.3004 104.56 44.0897 104.603 43.8924 104.688C43.695 104.773 43.519 104.869 43.3644 104.976L43.1084 104.52C43.2897 104.403 43.511 104.291 43.7724 104.184C44.039 104.072 44.327 104.016 44.6364 104.016C45.111 104.016 45.455 104.163 45.6684 104.456C45.8817 104.744 45.9884 105.131 45.9884 105.616V108H45.4444L45.3884 107.536H45.3644C45.183 107.685 44.983 107.816 44.7644 107.928C44.551 108.04 44.3217 108.096 44.0764 108.096ZM44.2684 107.568C44.455 107.568 44.631 107.523 44.7964 107.432C44.9617 107.341 45.1377 107.213 45.3244 107.048V105.968C44.679 106.048 44.2257 106.168 43.9644 106.328C43.7084 106.488 43.5804 106.693 43.5804 106.944C43.5804 107.163 43.647 107.323 43.7804 107.424C43.9137 107.52 44.0764 107.568 44.2684 107.568ZM48.2462 108.096C47.8302 108.096 47.5396 107.976 47.3742 107.736C47.2142 107.496 47.1342 107.184 47.1342 106.8V104.648H46.5582V104.152L47.1662 104.112L47.2462 103.024H47.7982V104.112H48.8462V104.648H47.7982V106.808C47.7982 107.048 47.8409 107.235 47.9262 107.368C48.0169 107.496 48.1742 107.56 48.3982 107.56C48.4676 107.56 48.5422 107.549 48.6222 107.528C48.7022 107.501 48.7742 107.477 48.8382 107.456L48.9662 107.952C48.8596 107.989 48.7422 108.021 48.6142 108.048C48.4916 108.08 48.3689 108.096 48.2462 108.096ZM51.112 108.096C50.7653 108.096 50.4507 108.016 50.168 107.856C49.8853 107.691 49.6613 107.456 49.496 107.152C49.3307 106.848 49.248 106.485 49.248 106.064C49.248 105.637 49.3307 105.272 49.496 104.968C49.6667 104.664 49.8853 104.429 50.152 104.264C50.4187 104.099 50.6987 104.016 50.992 104.016C51.488 104.016 51.8693 104.181 52.136 104.512C52.408 104.843 52.544 105.285 52.544 105.84C52.544 105.909 52.5413 105.979 52.536 106.048C52.536 106.112 52.5307 106.168 52.52 106.216H49.896C49.9227 106.627 50.0507 106.955 50.28 107.2C50.5147 107.445 50.8187 107.568 51.192 107.568C51.3787 107.568 51.5493 107.541 51.704 107.488C51.864 107.429 52.016 107.355 52.16 107.264L52.392 107.696C52.2267 107.803 52.0373 107.896 51.824 107.976C51.616 108.056 51.3787 108.096 51.112 108.096ZM49.888 105.744H51.968C51.968 105.349 51.8827 105.051 51.712 104.848C51.5467 104.64 51.312 104.536 51.008 104.536C50.736 104.536 50.4907 104.643 50.272 104.856C50.0587 105.064 49.9307 105.36 49.888 105.744ZM54.7527 108.096C54.2674 108.096 53.8781 107.92 53.5847 107.568C53.2914 107.211 53.1447 106.709 53.1447 106.064C53.1447 105.643 53.2221 105.28 53.3767 104.976C53.5367 104.667 53.7447 104.429 54.0007 104.264C54.2621 104.099 54.5394 104.016 54.8327 104.016C55.0567 104.016 55.2514 104.056 55.4167 104.136C55.5821 104.216 55.7501 104.325 55.9207 104.464L55.8887 103.8V102.304H56.5527V108H56.0087L55.9527 107.544H55.9287C55.7794 107.693 55.6034 107.824 55.4007 107.936C55.1981 108.043 54.9821 108.096 54.7527 108.096ZM54.8967 107.544C55.2381 107.544 55.5687 107.365 55.8887 107.008V104.976C55.7234 104.827 55.5634 104.723 55.4087 104.664C55.2594 104.6 55.1047 104.568 54.9447 104.568C54.7367 104.568 54.5474 104.632 54.3767 104.76C54.2114 104.883 54.0781 105.056 53.9767 105.28C53.8754 105.499 53.8247 105.757 53.8247 106.056C53.8247 106.52 53.9181 106.885 54.1047 107.152C54.2914 107.413 54.5554 107.544 54.8967 107.544ZM4.376 118.096C4.19467 118.096 4.00533 118.053 3.808 117.968C3.616 117.877 3.43467 117.755 3.264 117.6H3.24L3.184 118H2.656V112.304H3.312V113.856L3.296 114.56C3.472 114.405 3.664 114.277 3.872 114.176C4.08533 114.069 4.29867 114.016 4.512 114.016C5.01867 114.016 5.40267 114.195 5.664 114.552C5.92533 114.909 6.056 115.389 6.056 115.992C6.056 116.435 5.976 116.813 5.816 117.128C5.66133 117.443 5.456 117.683 5.2 117.848C4.94933 118.013 4.67467 118.096 4.376 118.096ZM4.264 117.544C4.584 117.544 4.848 117.408 5.056 117.136C5.26933 116.859 5.376 116.48 5.376 116C5.376 115.573 5.296 115.229 5.136 114.968C4.98133 114.701 4.72 114.568 4.352 114.568C4.18667 114.568 4.01867 114.613 3.848 114.704C3.67733 114.795 3.49867 114.925 3.312 115.096V117.136C3.48267 117.285 3.65067 117.392 3.816 117.456C3.98667 117.515 4.136 117.544 4.264 117.544ZM7.03063 119.672C6.94529 119.672 6.86263 119.664 6.78263 119.648C6.70796 119.632 6.63863 119.613 6.57463 119.592L6.70263 119.072C6.74529 119.083 6.79329 119.093 6.84663 119.104C6.89996 119.12 6.95063 119.128 6.99863 119.128C7.21729 119.128 7.39863 119.048 7.54263 118.888C7.68663 118.733 7.79863 118.536 7.87863 118.296L7.96663 118.008L6.40663 114.112H7.08663L7.87863 116.264C7.93729 116.429 7.99863 116.608 8.06263 116.8C8.13196 116.992 8.19596 117.179 8.25463 117.36H8.28663C8.34529 117.184 8.40129 117 8.45463 116.808C8.50796 116.616 8.56129 116.435 8.61463 116.264L9.31063 114.112H9.95063L8.48663 118.32C8.39596 118.576 8.28663 118.805 8.15863 119.008C8.03596 119.211 7.88129 119.371 7.69463 119.488C7.51329 119.611 7.29196 119.672 7.03063 119.672ZM13.0546 118V115.968L11.4786 112.752H12.1906L12.8706 114.232C12.9559 114.424 13.0386 114.613 13.1186 114.8C13.2039 114.987 13.2892 115.179 13.3746 115.376H13.4066C13.4972 115.179 13.5879 114.987 13.6786 114.8C13.7692 114.613 13.8546 114.424 13.9346 114.232L14.6066 112.752H15.3026L13.7266 115.968V118H13.0546ZM15.008 116.248V115.744H16.848V116.248H15.008ZM19.7884 118.096C19.351 118.096 18.959 117.989 18.6124 117.776C18.271 117.557 17.999 117.245 17.7964 116.84C17.599 116.435 17.5004 115.947 17.5004 115.376C17.5004 114.811 17.6017 114.325 17.8044 113.92C18.007 113.515 18.2844 113.203 18.6364 112.984C18.9884 112.765 19.3857 112.656 19.8284 112.656C20.1484 112.656 20.431 112.723 20.6764 112.856C20.9217 112.984 21.119 113.133 21.2684 113.304L20.9084 113.736C20.7697 113.587 20.6124 113.467 20.4364 113.376C20.2604 113.285 20.0604 113.24 19.8364 113.24C19.5057 113.24 19.215 113.328 18.9644 113.504C18.719 113.675 18.527 113.917 18.3884 114.232C18.255 114.547 18.1884 114.923 18.1884 115.36C18.1884 115.797 18.255 116.179 18.3884 116.504C18.5217 116.824 18.7084 117.072 18.9484 117.248C19.1937 117.424 19.4817 117.512 19.8124 117.512C20.063 117.512 20.287 117.459 20.4844 117.352C20.6817 117.245 20.863 117.101 21.0284 116.92L21.3964 117.336C21.1884 117.576 20.9537 117.763 20.6924 117.896C20.431 118.029 20.1297 118.096 19.7884 118.096ZM23.7427 118.096C23.428 118.096 23.132 118.016 22.8547 117.856C22.5827 117.696 22.3614 117.464 22.1907 117.16C22.0254 116.856 21.9427 116.491 21.9427 116.064C21.9427 115.627 22.0254 115.256 22.1907 114.952C22.3614 114.648 22.5827 114.416 22.8547 114.256C23.132 114.096 23.428 114.016 23.7427 114.016C24.0627 114.016 24.3587 114.096 24.6307 114.256C24.9027 114.416 25.1214 114.648 25.2867 114.952C25.4574 115.256 25.5427 115.627 25.5427 116.064C25.5427 116.491 25.4574 116.856 25.2867 117.16C25.1214 117.464 24.9027 117.696 24.6307 117.856C24.3587 118.016 24.0627 118.096 23.7427 118.096ZM23.7427 117.552C24.0787 117.552 24.348 117.416 24.5507 117.144C24.7587 116.867 24.8627 116.507 24.8627 116.064C24.8627 115.616 24.7587 115.253 24.5507 114.976C24.348 114.699 24.0787 114.56 23.7427 114.56C23.412 114.56 23.1427 114.699 22.9347 114.976C22.7267 115.253 22.6227 115.616 22.6227 116.064C22.6227 116.507 22.7267 116.867 22.9347 117.144C23.1427 117.416 23.412 117.552 23.7427 117.552ZM26.4866 118V114.112H27.0306L27.0866 114.672H27.1106C27.2813 114.485 27.468 114.331 27.6706 114.208C27.8733 114.08 28.0893 114.016 28.3186 114.016C28.6173 114.016 28.8493 114.083 29.0146 114.216C29.1853 114.344 29.3106 114.525 29.3906 114.76C29.5933 114.541 29.7986 114.363 30.0066 114.224C30.2146 114.085 30.436 114.016 30.6706 114.016C31.0706 114.016 31.3666 114.147 31.5586 114.408C31.756 114.664 31.8546 115.04 31.8546 115.536V118H31.1986V115.624C31.1986 115.261 31.14 114.997 31.0226 114.832C30.9053 114.667 30.724 114.584 30.4786 114.584C30.1906 114.584 29.8653 114.784 29.5026 115.184V118H28.8466V115.624C28.8466 115.261 28.788 114.997 28.6706 114.832C28.5533 114.667 28.3693 114.584 28.1186 114.584C27.8306 114.584 27.5053 114.784 27.1426 115.184V118H26.4866ZM34.7594 118.096C34.5781 118.096 34.3888 118.053 34.1914 117.968C33.9994 117.877 33.8181 117.755 33.6474 117.6H33.6234L33.5674 118H33.0394V112.304H33.6954V113.856L33.6794 114.56C33.8554 114.405 34.0474 114.277 34.2554 114.176C34.4688 114.069 34.6821 114.016 34.8954 114.016C35.4021 114.016 35.7861 114.195 36.0474 114.552C36.3088 114.909 36.4394 115.389 36.4394 115.992C36.4394 116.435 36.3594 116.813 36.1994 117.128C36.0448 117.443 35.8394 117.683 35.5834 117.848C35.3328 118.013 35.0581 118.096 34.7594 118.096ZM34.6474 117.544C34.9674 117.544 35.2314 117.408 35.4394 117.136C35.6528 116.859 35.7594 116.48 35.7594 116C35.7594 115.573 35.6794 115.229 35.5194 114.968C35.3648 114.701 35.1034 114.568 34.7354 114.568C34.5701 114.568 34.4021 114.613 34.2314 114.704C34.0608 114.795 33.8821 114.925 33.6954 115.096V117.136C33.8661 117.285 34.0341 117.392 34.1994 117.456C34.3701 117.515 34.5194 117.544 34.6474 117.544ZM37.3813 118V114.112H38.0373V118H37.3813ZM37.7173 113.312C37.5893 113.312 37.4826 113.275 37.3973 113.2C37.3173 113.12 37.2773 113.013 37.2773 112.88C37.2773 112.752 37.3173 112.648 37.3973 112.568C37.4826 112.488 37.5893 112.448 37.7173 112.448C37.8453 112.448 37.9493 112.488 38.0293 112.568C38.1146 112.648 38.1573 112.752 38.1573 112.88C38.1573 113.013 38.1146 113.12 38.0293 113.2C37.9493 113.275 37.8453 113.312 37.7173 113.312ZM39.2701 118V114.112H39.8141L39.8701 114.672H39.8941C40.0807 114.485 40.2781 114.331 40.4861 114.208C40.6941 114.08 40.9314 114.016 41.1981 114.016C41.6087 114.016 41.9074 114.147 42.0941 114.408C42.2861 114.664 42.3821 115.04 42.3821 115.536V118H41.7261V115.624C41.7261 115.261 41.6674 114.997 41.5501 114.832C41.4327 114.667 41.2461 114.584 40.9901 114.584C40.7927 114.584 40.6141 114.635 40.4541 114.736C40.2994 114.837 40.1234 114.987 39.9261 115.184V118H39.2701ZM44.4611 118.096C44.1357 118.096 43.8637 118 43.6451 117.808C43.4317 117.611 43.3251 117.339 43.3251 116.992C43.3251 116.565 43.5144 116.24 43.8931 116.016C44.2771 115.787 44.8824 115.627 45.7091 115.536C45.7091 115.371 45.6851 115.213 45.6371 115.064C45.5944 114.915 45.5144 114.795 45.3971 114.704C45.2851 114.608 45.1224 114.56 44.9091 114.56C44.6851 114.56 44.4744 114.603 44.2771 114.688C44.0797 114.773 43.9037 114.869 43.7491 114.976L43.4931 114.52C43.6744 114.403 43.8957 114.291 44.1571 114.184C44.4237 114.072 44.7117 114.016 45.0211 114.016C45.4957 114.016 45.8397 114.163 46.0531 114.456C46.2664 114.744 46.3731 115.131 46.3731 115.616V118H45.8291L45.7731 117.536H45.7491C45.5677 117.685 45.3677 117.816 45.1491 117.928C44.9357 118.04 44.7064 118.096 44.4611 118.096ZM44.6531 117.568C44.8397 117.568 45.0157 117.523 45.1811 117.432C45.3464 117.341 45.5224 117.213 45.7091 117.048V115.968C45.0637 116.048 44.6104 116.168 44.3491 116.328C44.0931 116.488 43.9651 116.693 43.9651 116.944C43.9651 117.163 44.0317 117.323 44.1651 117.424C44.2984 117.52 44.4611 117.568 44.6531 117.568ZM48.6309 118.096C48.2149 118.096 47.9243 117.976 47.7589 117.736C47.5989 117.496 47.5189 117.184 47.5189 116.8V114.648H46.9429V114.152L47.5509 114.112L47.6309 113.024H48.1829V114.112H49.2309V114.648H48.1829V116.808C48.1829 117.048 48.2256 117.235 48.3109 117.368C48.4016 117.496 48.5589 117.56 48.7829 117.56C48.8523 117.56 48.9269 117.549 49.0069 117.528C49.0869 117.501 49.1589 117.477 49.2229 117.456L49.3509 117.952C49.2443 117.989 49.1269 118.021 48.9989 118.048C48.8763 118.08 48.7536 118.096 48.6309 118.096ZM51.4327 118.096C51.118 118.096 50.822 118.016 50.5447 117.856C50.2727 117.696 50.0514 117.464 49.8807 117.16C49.7154 116.856 49.6327 116.491 49.6327 116.064C49.6327 115.627 49.7154 115.256 49.8807 114.952C50.0514 114.648 50.2727 114.416 50.5447 114.256C50.822 114.096 51.118 114.016 51.4327 114.016C51.7527 114.016 52.0487 114.096 52.3207 114.256C52.5927 114.416 52.8114 114.648 52.9767 114.952C53.1474 115.256 53.2327 115.627 53.2327 116.064C53.2327 116.491 53.1474 116.856 52.9767 117.16C52.8114 117.464 52.5927 117.696 52.3207 117.856C52.0487 118.016 51.7527 118.096 51.4327 118.096ZM51.4327 117.552C51.7687 117.552 52.038 117.416 52.2407 117.144C52.4487 116.867 52.5527 116.507 52.5527 116.064C52.5527 115.616 52.4487 115.253 52.2407 114.976C52.038 114.699 51.7687 114.56 51.4327 114.56C51.102 114.56 50.8327 114.699 50.6247 114.976C50.4167 115.253 50.3127 115.616 50.3127 116.064C50.3127 116.507 50.4167 116.867 50.6247 117.144C50.8327 117.416 51.102 117.552 51.4327 117.552ZM54.1766 118V114.112H54.7206L54.7766 114.816H54.8006C54.934 114.571 55.0966 114.376 55.2886 114.232C55.4806 114.088 55.686 114.016 55.9046 114.016C56.0593 114.016 56.198 114.043 56.3206 114.096L56.1926 114.672C56.1286 114.651 56.07 114.635 56.0166 114.624C55.9633 114.613 55.8966 114.608 55.8166 114.608C55.6513 114.608 55.478 114.675 55.2966 114.808C55.1206 114.941 54.966 115.173 54.8326 115.504V118H54.1766Z" fill="black"/>
</svg>
