<svg width="781" height="528" viewBox="0 0 781 528" fill="none" xmlns="http://www.w3.org/2000/svg">
<path d="M23 361.342C28.925 361.342 28.925 350.071 34.85 350.071C40.775 350.071 40.775 330.357 46.7 330.357C52.625 330.357 52.625 337.383 58.55 337.383C64.475 337.383 64.475 345.815 70.4 345.815C76.325 345.815 76.325 340.172 82.25 340.172C88.175 340.172 88.175 330.308 94.1 330.308C100.025 330.308 100.025 344.372 105.95 344.372C111.875 344.372 111.875 326.064 117.8 326.064C123.725 326.064 123.725 324.644 129.65 324.644C135.575 324.644 135.575 345.743 141.5 345.743C147.425 345.743 147.425 354.176 153.35 354.176C159.275 354.176 159.275 373.869 165.2 373.869C171.125 373.869 171.125 382.302 177.05 382.302C182.975 382.302 182.975 386.513 188.9 386.513C194.825 386.513 194.825 390.723 200.75 390.723C206.675 390.723 206.675 393.527 212.6 393.527C218.525 393.527 218.525 390.7 224.45 390.7C230.375 390.7 230.375 368.169 236.3 368.169C242.225 368.169 242.225 349.859 248.15 349.859C254.075 349.859 254.075 341.405 260 341.405C265.925 341.405 265.925 330.133 271.85 330.133C277.775 330.133 277.775 330.121 283.7 330.121C289.625 330.121 289.625 324.479 295.55 324.479C301.475 324.479 301.475 317.43 307.4 317.43C313.325 317.43 313.325 306.159 319.25 306.159C325.175 306.159 325.175 289.259 331.1 289.259C337.025 289.259 337.025 280.803 342.95 280.803C348.875 280.803 348.875 263.9 354.8 263.9C360.725 263.9 360.725 283.594 366.65 283.594C372.575 283.594 372.575 283.582 378.5 283.582C384.425 283.582 384.425 280.755 390.35 280.755C396.275 280.755 396.275 304.669 402.2 304.669C408.125 304.669 408.125 300.437 414.05 300.437C419.975 300.437 419.975 311.684 425.9 311.684C431.825 311.684 431.825 308.858 437.75 308.858C443.675 308.858 443.675 314.475 449.6 314.475C455.525 314.475 455.525 308.834 461.45 308.834C467.375 308.834 467.375 320.081 473.3 320.081C479.225 320.081 479.225 336.959 485.15 336.959C491.075 336.959 491.075 339.762 497 339.762C502.925 339.762 502.925 308.786 508.85 308.786C514.775 308.786 514.775 287.663 520.7 287.663C526.625 287.663 526.625 256.688 532.55 256.688C538.475 256.688 538.475 217.267 544.4 217.267C550.325 217.267 550.325 222.887 556.25 222.887C562.175 222.887 562.175 213.021 568.1 213.021C574.025 213.021 574.025 205.974 579.95 205.974C585.875 205.974 585.875 231.296 591.8 231.296C597.725 231.296 597.725 238.319 603.65 238.319C609.575 238.319 609.575 255.197 615.5 255.197C621.425 255.197 621.425 241.112 627.35 241.112C633.275 241.112 633.275 177.765 639.2 177.765C645.125 177.765 645.125 139.753 651.05 139.753C656.975 139.753 656.975 118.628 662.9 118.628C668.825 118.628 668.825 173.508 674.75 173.508C680.675 173.508 680.675 167.866 686.6 167.866C692.525 167.866 692.525 118.594 698.45 118.594C704.375 118.594 704.375 149.545 710.3 149.545C716.225 149.545 716.225 119.977 722.15 119.977C728.075 119.977 728.075 51 734 51V484C728.075 484 728.075 484 722.15 484C716.225 484 716.225 484 710.3 484C704.375 484 704.375 484 698.45 484C692.525 484 692.525 484 686.6 484C680.675 484 680.675 484 674.75 484C668.825 484 668.825 484 662.9 484C656.975 484 656.975 484 651.05 484C645.125 484 645.125 484 639.2 484C633.275 484 633.275 484 627.35 484C621.425 484 621.425 484 615.5 484C609.575 484 609.575 484 603.65 484C597.725 484 597.725 484 591.8 484C585.875 484 585.875 484 579.95 484C574.025 484 574.025 484 568.1 484C562.175 484 562.175 484 556.25 484C550.325 484 550.325 484 544.4 484C538.475 484 538.475 484 532.55 484C526.625 484 526.625 484 520.7 484C514.775 484 514.775 484 508.85 484C502.925 484 502.925 484 497 484C491.075 484 491.075 484 485.15 484C479.225 484 479.225 484 473.3 484C467.375 484 467.375 484 461.45 484C455.525 484 455.525 484 449.6 484C443.675 484 443.675 484 437.75 484C431.825 484 431.825 484 425.9 484C419.975 484 419.975 484 414.05 484C408.125 484 408.125 484 402.2 484C396.275 484 396.275 484 390.35 484C384.425 484 384.425 484 378.5 484C372.575 484 372.575 484 366.65 484C360.725 484 360.725 484 354.8 484C348.875 484 348.875 484 342.95 484C337.025 484 337.025 484 331.1 484C325.175 484 325.175 484 319.25 484C313.325 484 313.325 484 307.4 484C301.475 484 301.475 484 295.55 484C289.625 484 289.625 484 283.7 484C277.775 484 277.775 484 271.85 484C265.925 484 265.925 484 260 484C254.075 484 254.075 484 248.15 484C242.225 484 242.225 484 236.3 484C230.375 484 230.375 484 224.45 484C218.525 484 218.525 484 212.6 484C206.675 484 206.675 484 200.75 484C194.825 484 194.825 484 188.9 484C182.975 484 182.975 484 177.05 484C171.125 484 171.125 484 165.2 484C159.275 484 159.275 484 153.35 484C147.425 484 147.425 484 141.5 484C135.575 484 135.575 484 129.65 484C123.725 484 123.725 484 117.8 484C111.875 484 111.875 484 105.95 484C100.025 484 100.025 484 94.1 484C88.175 484 88.175 484 82.25 484C76.325 484 76.325 484 70.4 484C64.475 484 64.475 484 58.55 484C52.625 484 52.625 484 46.7 484C40.775 484 40.775 484 34.85 484C28.925 484 28.925 484 23 484V361.342Z" fill="#F98E29"/>
<path d="M23 484H734" stroke="#F2F2F2"/>
<path d="M23 484V492" stroke="#F2F2F2"/>
<path d="M4.69719 512V510.64H7.61719V501.24H5.29719V500.18C5.88385 500.073 6.39052 499.947 6.81719 499.8C7.25719 499.64 7.65052 499.453 7.99719 499.24H9.25719V510.64H11.8972V512H4.69719ZM15.3986 503.1C15.3986 503.927 15.5919 504.587 15.9786 505.08C16.3786 505.56 16.9719 505.8 17.7586 505.8C18.1853 505.8 18.6319 505.667 19.0986 505.4C19.5786 505.133 20.0253 504.7 20.4386 504.1C20.3319 502.86 20.0386 501.92 19.5586 501.28C19.0786 500.627 18.4319 500.3 17.6186 500.3C17.0053 500.3 16.4786 500.56 16.0386 501.08C15.6119 501.587 15.3986 502.26 15.3986 503.1ZM17.1586 512.24C16.4786 512.24 15.8786 512.113 15.3586 511.86C14.8519 511.593 14.4253 511.273 14.0786 510.9L14.9986 509.86C15.2653 510.167 15.5786 510.413 15.9386 510.6C16.3119 510.787 16.6986 510.88 17.0986 510.88C17.6986 510.88 18.2519 510.707 18.7586 510.36C19.2653 510.013 19.6719 509.44 19.9786 508.64C20.2986 507.84 20.4653 506.76 20.4786 505.4C20.0786 505.907 19.6119 506.307 19.0786 506.6C18.5453 506.893 18.0119 507.04 17.4786 507.04C16.3853 507.04 15.5053 506.713 14.8386 506.06C14.1853 505.393 13.8586 504.407 13.8586 503.1C13.8586 502.287 14.0319 501.573 14.3786 500.96C14.7253 500.347 15.1786 499.867 15.7386 499.52C16.3119 499.173 16.9386 499 17.6186 499C18.4586 499 19.2119 499.227 19.8786 499.68C20.5453 500.133 21.0653 500.813 21.4386 501.72C21.8253 502.627 22.0186 503.767 22.0186 505.14C22.0186 506.847 21.7853 508.22 21.3186 509.26C20.8653 510.3 20.2719 511.06 19.5386 511.54C18.8053 512.007 18.0119 512.24 17.1586 512.24ZM27.68 512.24C26.6667 512.24 25.8267 512.06 25.16 511.7C24.4933 511.34 23.94 510.94 23.5 510.5L24.3 509.42C24.6867 509.793 25.1333 510.133 25.64 510.44C26.1467 510.733 26.7733 510.88 27.52 510.88C28.3067 510.88 28.9667 510.62 29.5 510.1C30.0467 509.567 30.32 508.853 30.32 507.96C30.32 507.08 30.0733 506.393 29.58 505.9C29.0867 505.407 28.4267 505.16 27.6 505.16C27.16 505.16 26.78 505.227 26.46 505.36C26.1533 505.493 25.8067 505.687 25.42 505.94L24.54 505.38L24.96 499.24H31.34V500.66H26.4L26.06 504.44C26.3667 504.28 26.6733 504.153 26.98 504.06C27.2867 503.967 27.6333 503.92 28.02 503.92C28.7533 503.92 29.4133 504.067 30 504.36C30.6 504.64 31.08 505.073 31.44 505.66C31.8 506.247 31.98 507 31.98 507.92C31.98 508.84 31.7733 509.627 31.36 510.28C30.96 510.92 30.4333 511.407 29.78 511.74C29.1267 512.073 28.4267 512.24 27.68 512.24ZM37.9214 512.24C36.6414 512.24 35.6347 511.667 34.9014 510.52C34.1814 509.36 33.8214 507.713 33.8214 505.58C33.8214 503.433 34.1814 501.8 34.9014 500.68C35.6347 499.56 36.6414 499 37.9214 499C39.1881 499 40.1814 499.56 40.9014 500.68C41.6347 501.8 42.0014 503.433 42.0014 505.58C42.0014 507.713 41.6347 509.36 40.9014 510.52C40.1814 511.667 39.1881 512.24 37.9214 512.24ZM37.9214 510.92C38.6681 510.92 39.2681 510.5 39.7214 509.66C40.1747 508.807 40.4014 507.447 40.4014 505.58C40.4014 503.713 40.1747 502.373 39.7214 501.56C39.2681 500.733 38.6681 500.32 37.9214 500.32C37.1747 500.32 36.5681 500.733 36.1014 501.56C35.6481 502.373 35.4214 503.713 35.4214 505.58C35.4214 507.447 35.6481 508.807 36.1014 509.66C36.5681 510.5 37.1747 510.92 37.9214 510.92Z" fill="#F2F2F2"/>
<path d="M149 484V492" stroke="#F2F2F2"/>
<path d="M132.697 512V510.64H135.617V501.24H133.297V500.18C133.884 500.073 134.391 499.947 134.817 499.8C135.257 499.64 135.651 499.453 135.997 499.24H137.257V510.64H139.897V512H132.697ZM143.399 503.1C143.399 503.927 143.592 504.587 143.979 505.08C144.379 505.56 144.972 505.8 145.759 505.8C146.185 505.8 146.632 505.667 147.099 505.4C147.579 505.133 148.025 504.7 148.439 504.1C148.332 502.86 148.039 501.92 147.559 501.28C147.079 500.627 146.432 500.3 145.619 500.3C145.005 500.3 144.479 500.56 144.039 501.08C143.612 501.587 143.399 502.26 143.399 503.1ZM145.159 512.24C144.479 512.24 143.879 512.113 143.359 511.86C142.852 511.593 142.425 511.273 142.079 510.9L142.999 509.86C143.265 510.167 143.579 510.413 143.939 510.6C144.312 510.787 144.699 510.88 145.099 510.88C145.699 510.88 146.252 510.707 146.759 510.36C147.265 510.013 147.672 509.44 147.979 508.64C148.299 507.84 148.465 506.76 148.479 505.4C148.079 505.907 147.612 506.307 147.079 506.6C146.545 506.893 146.012 507.04 145.479 507.04C144.385 507.04 143.505 506.713 142.839 506.06C142.185 505.393 141.859 504.407 141.859 503.1C141.859 502.287 142.032 501.573 142.379 500.96C142.725 500.347 143.179 499.867 143.739 499.52C144.312 499.173 144.939 499 145.619 499C146.459 499 147.212 499.227 147.879 499.68C148.545 500.133 149.065 500.813 149.439 501.72C149.825 502.627 150.019 503.767 150.019 505.14C150.019 506.847 149.785 508.22 149.319 509.26C148.865 510.3 148.272 511.06 147.539 511.54C146.805 512.007 146.012 512.24 145.159 512.24ZM156.22 505.44C155.807 505.44 155.36 505.573 154.88 505.84C154.4 506.107 153.96 506.533 153.56 507.12C153.667 508.36 153.953 509.307 154.42 509.96C154.9 510.613 155.547 510.94 156.36 510.94C156.987 510.94 157.513 510.687 157.94 510.18C158.367 509.66 158.58 508.98 158.58 508.14C158.58 507.313 158.38 506.66 157.98 506.18C157.593 505.687 157.007 505.44 156.22 505.44ZM156.36 512.24C155.533 512.24 154.787 512.013 154.12 511.56C153.453 511.107 152.927 510.427 152.54 509.52C152.153 508.6 151.96 507.46 151.96 506.1C151.96 504.393 152.187 503.02 152.64 501.98C153.107 500.94 153.707 500.187 154.44 499.72C155.187 499.24 155.98 499 156.82 499C157.513 499 158.107 499.133 158.6 499.4C159.107 499.653 159.54 499.973 159.9 500.36L158.98 501.38C158.727 501.073 158.413 500.833 158.04 500.66C157.667 500.473 157.28 500.38 156.88 500.38C156.28 500.38 155.733 500.553 155.24 500.9C154.747 501.233 154.34 501.8 154.02 502.6C153.713 503.387 153.547 504.453 153.52 505.8C153.92 505.307 154.387 504.92 154.92 504.64C155.453 504.347 155.98 504.2 156.5 504.2C157.607 504.2 158.487 504.533 159.14 505.2C159.807 505.853 160.14 506.833 160.14 508.14C160.14 508.953 159.967 509.667 159.62 510.28C159.273 510.893 158.813 511.373 158.24 511.72C157.68 512.067 157.053 512.24 156.36 512.24ZM165.921 512.24C164.641 512.24 163.635 511.667 162.901 510.52C162.181 509.36 161.821 507.713 161.821 505.58C161.821 503.433 162.181 501.8 162.901 500.68C163.635 499.56 164.641 499 165.921 499C167.188 499 168.181 499.56 168.901 500.68C169.635 501.8 170.001 503.433 170.001 505.58C170.001 507.713 169.635 509.36 168.901 510.52C168.181 511.667 167.188 512.24 165.921 512.24ZM165.921 510.92C166.668 510.92 167.268 510.5 167.721 509.66C168.175 508.807 168.401 507.447 168.401 505.58C168.401 503.713 168.175 502.373 167.721 501.56C167.268 500.733 166.668 500.32 165.921 500.32C165.175 500.32 164.568 500.733 164.101 501.56C163.648 502.373 163.421 503.713 163.421 505.58C163.421 507.447 163.648 508.807 164.101 509.66C164.568 510.5 165.175 510.92 165.921 510.92Z" fill="#F2F2F2"/>
<path d="M267 484V492" stroke="#F2F2F2"/>
<path d="M250.197 512V510.64H253.117V501.24H250.797V500.18C251.384 500.073 251.891 499.947 252.317 499.8C252.757 499.64 253.151 499.453 253.497 499.24H254.757V510.64H257.397V512H250.197ZM260.899 503.1C260.899 503.927 261.092 504.587 261.479 505.08C261.879 505.56 262.472 505.8 263.259 505.8C263.685 505.8 264.132 505.667 264.599 505.4C265.079 505.133 265.525 504.7 265.939 504.1C265.832 502.86 265.539 501.92 265.059 501.28C264.579 500.627 263.932 500.3 263.119 500.3C262.505 500.3 261.979 500.56 261.539 501.08C261.112 501.587 260.899 502.26 260.899 503.1ZM262.659 512.24C261.979 512.24 261.379 512.113 260.859 511.86C260.352 511.593 259.925 511.273 259.579 510.9L260.499 509.86C260.765 510.167 261.079 510.413 261.439 510.6C261.812 510.787 262.199 510.88 262.599 510.88C263.199 510.88 263.752 510.707 264.259 510.36C264.765 510.013 265.172 509.44 265.479 508.64C265.799 507.84 265.965 506.76 265.979 505.4C265.579 505.907 265.112 506.307 264.579 506.6C264.045 506.893 263.512 507.04 262.979 507.04C261.885 507.04 261.005 506.713 260.339 506.06C259.685 505.393 259.359 504.407 259.359 503.1C259.359 502.287 259.532 501.573 259.879 500.96C260.225 500.347 260.679 499.867 261.239 499.52C261.812 499.173 262.439 499 263.119 499C263.959 499 264.712 499.227 265.379 499.68C266.045 500.133 266.565 500.813 266.939 501.72C267.325 502.627 267.519 503.767 267.519 505.14C267.519 506.847 267.285 508.22 266.819 509.26C266.365 510.3 265.772 511.06 265.039 511.54C264.305 512.007 263.512 512.24 262.659 512.24ZM272.04 512C272.12 510.4 272.287 508.967 272.54 507.7C272.807 506.42 273.193 505.22 273.7 504.1C274.22 502.967 274.9 501.82 275.74 500.66H269.38V499.24H277.6V500.26C276.84 501.22 276.22 502.147 275.74 503.04C275.26 503.92 274.887 504.813 274.62 505.72C274.353 506.613 274.153 507.573 274.02 508.6C273.887 509.627 273.793 510.76 273.74 512H272.04ZM283.421 512.24C282.141 512.24 281.135 511.667 280.401 510.52C279.681 509.36 279.321 507.713 279.321 505.58C279.321 503.433 279.681 501.8 280.401 500.68C281.135 499.56 282.141 499 283.421 499C284.688 499 285.681 499.56 286.401 500.68C287.135 501.8 287.501 503.433 287.501 505.58C287.501 507.713 287.135 509.36 286.401 510.52C285.681 511.667 284.688 512.24 283.421 512.24ZM283.421 510.92C284.168 510.92 284.768 510.5 285.221 509.66C285.675 508.807 285.901 507.447 285.901 505.58C285.901 503.713 285.675 502.373 285.221 501.56C284.768 500.733 284.168 500.32 283.421 500.32C282.675 500.32 282.068 500.733 281.601 501.56C281.148 502.373 280.921 503.713 280.921 505.58C280.921 507.447 281.148 508.807 281.601 509.66C282.068 510.5 282.675 510.92 283.421 510.92Z" fill="#F2F2F2"/>
<path d="M378 484V492" stroke="#F2F2F2"/>
<path d="M360.697 512V510.64H363.617V501.24H361.297V500.18C361.884 500.073 362.391 499.947 362.817 499.8C363.257 499.64 363.651 499.453 363.997 499.24H365.257V510.64H367.897V512H360.697ZM371.399 503.1C371.399 503.927 371.592 504.587 371.979 505.08C372.379 505.56 372.972 505.8 373.759 505.8C374.185 505.8 374.632 505.667 375.099 505.4C375.579 505.133 376.025 504.7 376.439 504.1C376.332 502.86 376.039 501.92 375.559 501.28C375.079 500.627 374.432 500.3 373.619 500.3C373.005 500.3 372.479 500.56 372.039 501.08C371.612 501.587 371.399 502.26 371.399 503.1ZM373.159 512.24C372.479 512.24 371.879 512.113 371.359 511.86C370.852 511.593 370.425 511.273 370.079 510.9L370.999 509.86C371.265 510.167 371.579 510.413 371.939 510.6C372.312 510.787 372.699 510.88 373.099 510.88C373.699 510.88 374.252 510.707 374.759 510.36C375.265 510.013 375.672 509.44 375.979 508.64C376.299 507.84 376.465 506.76 376.479 505.4C376.079 505.907 375.612 506.307 375.079 506.6C374.545 506.893 374.012 507.04 373.479 507.04C372.385 507.04 371.505 506.713 370.839 506.06C370.185 505.393 369.859 504.407 369.859 503.1C369.859 502.287 370.032 501.573 370.379 500.96C370.725 500.347 371.179 499.867 371.739 499.52C372.312 499.173 372.939 499 373.619 499C374.459 499 375.212 499.227 375.879 499.68C376.545 500.133 377.065 500.813 377.439 501.72C377.825 502.627 378.019 503.767 378.019 505.14C378.019 506.847 377.785 508.22 377.319 509.26C376.865 510.3 376.272 511.06 375.539 511.54C374.805 512.007 374.012 512.24 373.159 512.24ZM384 512.24C383.2 512.24 382.487 512.093 381.86 511.8C381.233 511.493 380.733 511.073 380.36 510.54C380 510.007 379.82 509.407 379.82 508.74C379.82 508.18 379.933 507.687 380.16 507.26C380.4 506.82 380.7 506.44 381.06 506.12C381.433 505.787 381.82 505.513 382.22 505.3V505.22C381.753 504.887 381.34 504.48 380.98 504C380.62 503.52 380.44 502.947 380.44 502.28C380.44 501.627 380.6 501.053 380.92 500.56C381.24 500.067 381.673 499.687 382.22 499.42C382.767 499.14 383.38 499 384.06 499C385.167 499 386.04 499.32 386.68 499.96C387.333 500.6 387.66 501.413 387.66 502.4C387.66 502.84 387.567 503.26 387.38 503.66C387.193 504.047 386.967 504.4 386.7 504.72C386.433 505.027 386.167 505.28 385.9 505.48V505.56C386.287 505.773 386.647 506.027 386.98 506.32C387.313 506.613 387.587 506.967 387.8 507.38C388.013 507.78 388.12 508.267 388.12 508.84C388.12 509.467 387.947 510.04 387.6 510.56C387.267 511.08 386.787 511.493 386.16 511.8C385.547 512.093 384.827 512.24 384 512.24ZM384.9 505.04C385.327 504.653 385.653 504.247 385.88 503.82C386.12 503.393 386.24 502.947 386.24 502.48C386.24 501.853 386.047 501.32 385.66 500.88C385.273 500.44 384.727 500.22 384.02 500.22C383.433 500.22 382.94 500.407 382.54 500.78C382.153 501.153 381.96 501.653 381.96 502.28C381.96 502.787 382.093 503.207 382.36 503.54C382.64 503.873 383.007 504.16 383.46 504.4C383.913 504.627 384.393 504.84 384.9 505.04ZM384.04 511.02C384.787 511.02 385.387 510.813 385.84 510.4C386.307 509.973 386.54 509.433 386.54 508.78C386.54 508.233 386.38 507.787 386.06 507.44C385.74 507.093 385.313 506.793 384.78 506.54C384.26 506.287 383.693 506.04 383.08 505.8C382.573 506.133 382.147 506.533 381.8 507C381.467 507.467 381.3 507.993 381.3 508.58C381.3 509.287 381.56 509.873 382.08 510.34C382.613 510.793 383.267 511.02 384.04 511.02ZM393.921 512.24C392.641 512.24 391.635 511.667 390.901 510.52C390.181 509.36 389.821 507.713 389.821 505.58C389.821 503.433 390.181 501.8 390.901 500.68C391.635 499.56 392.641 499 393.921 499C395.188 499 396.181 499.56 396.901 500.68C397.635 501.8 398.001 503.433 398.001 505.58C398.001 507.713 397.635 509.36 396.901 510.52C396.181 511.667 395.188 512.24 393.921 512.24ZM393.921 510.92C394.668 510.92 395.268 510.5 395.721 509.66C396.175 508.807 396.401 507.447 396.401 505.58C396.401 503.713 396.175 502.373 395.721 501.56C395.268 500.733 394.668 500.32 393.921 500.32C393.175 500.32 392.568 500.733 392.101 501.56C391.648 502.373 391.421 503.713 391.421 505.58C391.421 507.447 391.648 508.807 392.101 509.66C392.568 510.5 393.175 510.92 393.921 510.92Z" fill="#F2F2F2"/>
<path d="M497 484V492" stroke="#F2F2F2"/>
<path d="M479.697 512V510.64H482.617V501.24H480.297V500.18C480.884 500.073 481.391 499.947 481.817 499.8C482.257 499.64 482.651 499.453 482.997 499.24H484.257V510.64H486.897V512H479.697ZM490.399 503.1C490.399 503.927 490.592 504.587 490.979 505.08C491.379 505.56 491.972 505.8 492.759 505.8C493.185 505.8 493.632 505.667 494.099 505.4C494.579 505.133 495.025 504.7 495.439 504.1C495.332 502.86 495.039 501.92 494.559 501.28C494.079 500.627 493.432 500.3 492.619 500.3C492.005 500.3 491.479 500.56 491.039 501.08C490.612 501.587 490.399 502.26 490.399 503.1ZM492.159 512.24C491.479 512.24 490.879 512.113 490.359 511.86C489.852 511.593 489.425 511.273 489.079 510.9L489.999 509.86C490.265 510.167 490.579 510.413 490.939 510.6C491.312 510.787 491.699 510.88 492.099 510.88C492.699 510.88 493.252 510.707 493.759 510.36C494.265 510.013 494.672 509.44 494.979 508.64C495.299 507.84 495.465 506.76 495.479 505.4C495.079 505.907 494.612 506.307 494.079 506.6C493.545 506.893 493.012 507.04 492.479 507.04C491.385 507.04 490.505 506.713 489.839 506.06C489.185 505.393 488.859 504.407 488.859 503.1C488.859 502.287 489.032 501.573 489.379 500.96C489.725 500.347 490.179 499.867 490.739 499.52C491.312 499.173 491.939 499 492.619 499C493.459 499 494.212 499.227 494.879 499.68C495.545 500.133 496.065 500.813 496.439 501.72C496.825 502.627 497.019 503.767 497.019 505.14C497.019 506.847 496.785 508.22 496.319 509.26C495.865 510.3 495.272 511.06 494.539 511.54C493.805 512.007 493.012 512.24 492.159 512.24ZM500.34 503.1C500.34 503.927 500.533 504.587 500.92 505.08C501.32 505.56 501.913 505.8 502.7 505.8C503.127 505.8 503.573 505.667 504.04 505.4C504.52 505.133 504.967 504.7 505.38 504.1C505.273 502.86 504.98 501.92 504.5 501.28C504.02 500.627 503.373 500.3 502.56 500.3C501.947 500.3 501.42 500.56 500.98 501.08C500.553 501.587 500.34 502.26 500.34 503.1ZM502.1 512.24C501.42 512.24 500.82 512.113 500.3 511.86C499.793 511.593 499.367 511.273 499.02 510.9L499.94 509.86C500.207 510.167 500.52 510.413 500.88 510.6C501.253 510.787 501.64 510.88 502.04 510.88C502.64 510.88 503.193 510.707 503.7 510.36C504.207 510.013 504.613 509.44 504.92 508.64C505.24 507.84 505.407 506.76 505.42 505.4C505.02 505.907 504.553 506.307 504.02 506.6C503.487 506.893 502.953 507.04 502.42 507.04C501.327 507.04 500.447 506.713 499.78 506.06C499.127 505.393 498.8 504.407 498.8 503.1C498.8 502.287 498.973 501.573 499.32 500.96C499.667 500.347 500.12 499.867 500.68 499.52C501.253 499.173 501.88 499 502.56 499C503.4 499 504.153 499.227 504.82 499.68C505.487 500.133 506.007 500.813 506.38 501.72C506.767 502.627 506.96 503.767 506.96 505.14C506.96 506.847 506.727 508.22 506.26 509.26C505.807 510.3 505.213 511.06 504.48 511.54C503.747 512.007 502.953 512.24 502.1 512.24ZM512.921 512.24C511.641 512.24 510.635 511.667 509.901 510.52C509.181 509.36 508.821 507.713 508.821 505.58C508.821 503.433 509.181 501.8 509.901 500.68C510.635 499.56 511.641 499 512.921 499C514.188 499 515.181 499.56 515.901 500.68C516.635 501.8 517.001 503.433 517.001 505.58C517.001 507.713 516.635 509.36 515.901 510.52C515.181 511.667 514.188 512.24 512.921 512.24ZM512.921 510.92C513.668 510.92 514.268 510.5 514.721 509.66C515.175 508.807 515.401 507.447 515.401 505.58C515.401 503.713 515.175 502.373 514.721 501.56C514.268 500.733 513.668 500.32 512.921 500.32C512.175 500.32 511.568 500.733 511.101 501.56C510.648 502.373 510.421 503.713 510.421 505.58C510.421 507.447 510.648 508.807 511.101 509.66C511.568 510.5 512.175 510.92 512.921 510.92Z" fill="#F2F2F2"/>
<path d="M615 484V492" stroke="#F2F2F2"/>
<path d="M598.917 512V511.02C600.197 509.74 601.284 508.62 602.177 507.66C603.071 506.687 603.751 505.813 604.217 505.04C604.684 504.253 604.917 503.52 604.917 502.84C604.917 502.107 604.717 501.507 604.317 501.04C603.917 500.573 603.311 500.34 602.497 500.34C601.964 500.34 601.471 500.493 601.017 500.8C600.564 501.093 600.151 501.453 599.777 501.88L598.837 500.94C599.371 500.353 599.937 499.887 600.537 499.54C601.151 499.18 601.871 499 602.697 499C603.884 499 604.817 499.347 605.497 500.04C606.177 500.72 606.517 501.627 606.517 502.76C606.517 503.56 606.291 504.373 605.837 505.2C605.397 506.013 604.784 506.873 603.997 507.78C603.224 508.673 602.331 509.647 601.317 510.7C601.664 510.673 602.024 510.647 602.397 510.62C602.771 510.593 603.124 510.58 603.457 510.58H607.157V512H598.917ZM613.039 512.24C611.759 512.24 610.752 511.667 610.019 510.52C609.299 509.36 608.939 507.713 608.939 505.58C608.939 503.433 609.299 501.8 610.019 500.68C610.752 499.56 611.759 499 613.039 499C614.305 499 615.299 499.56 616.019 500.68C616.752 501.8 617.119 503.433 617.119 505.58C617.119 507.713 616.752 509.36 616.019 510.52C615.299 511.667 614.305 512.24 613.039 512.24ZM613.039 510.92C613.785 510.92 614.385 510.5 614.839 509.66C615.292 508.807 615.519 507.447 615.519 505.58C615.519 503.713 615.292 502.373 614.839 501.56C614.385 500.733 613.785 500.32 613.039 500.32C612.292 500.32 611.685 500.733 611.219 501.56C610.765 502.373 610.539 503.713 610.539 505.58C610.539 507.447 610.765 508.807 611.219 509.66C611.685 510.5 612.292 510.92 613.039 510.92ZM622.98 512.24C621.7 512.24 620.693 511.667 619.96 510.52C619.24 509.36 618.88 507.713 618.88 505.58C618.88 503.433 619.24 501.8 619.96 500.68C620.693 499.56 621.7 499 622.98 499C624.247 499 625.24 499.56 625.96 500.68C626.693 501.8 627.06 503.433 627.06 505.58C627.06 507.713 626.693 509.36 625.96 510.52C625.24 511.667 624.247 512.24 622.98 512.24ZM622.98 510.92C623.727 510.92 624.327 510.5 624.78 509.66C625.233 508.807 625.46 507.447 625.46 505.58C625.46 503.713 625.233 502.373 624.78 501.56C624.327 500.733 623.727 500.32 622.98 500.32C622.233 500.32 621.627 500.733 621.16 501.56C620.707 502.373 620.48 503.713 620.48 505.58C620.48 507.447 620.707 508.807 621.16 509.66C621.627 510.5 622.233 510.92 622.98 510.92ZM632.921 512.24C631.641 512.24 630.635 511.667 629.901 510.52C629.181 509.36 628.821 507.713 628.821 505.58C628.821 503.433 629.181 501.8 629.901 500.68C630.635 499.56 631.641 499 632.921 499C634.188 499 635.181 499.56 635.901 500.68C636.635 501.8 637.001 503.433 637.001 505.58C637.001 507.713 636.635 509.36 635.901 510.52C635.181 511.667 634.188 512.24 632.921 512.24ZM632.921 510.92C633.668 510.92 634.268 510.5 634.721 509.66C635.175 508.807 635.401 507.447 635.401 505.58C635.401 503.713 635.175 502.373 634.721 501.56C634.268 500.733 633.668 500.32 632.921 500.32C632.175 500.32 631.568 500.733 631.101 501.56C630.648 502.373 630.421 503.713 630.421 505.58C630.421 507.447 630.648 508.807 631.101 509.66C631.568 510.5 632.175 510.92 632.921 510.92Z" fill="#F2F2F2"/>
<path d="M734 484V492" stroke="#F2F2F2"/>
<path d="M710.917 512V511.02C712.197 509.74 713.284 508.62 714.177 507.66C715.071 506.687 715.751 505.813 716.217 505.04C716.684 504.253 716.917 503.52 716.917 502.84C716.917 502.107 716.717 501.507 716.317 501.04C715.917 500.573 715.311 500.34 714.497 500.34C713.964 500.34 713.471 500.493 713.017 500.8C712.564 501.093 712.151 501.453 711.777 501.88L710.837 500.94C711.371 500.353 711.937 499.887 712.537 499.54C713.151 499.18 713.871 499 714.697 499C715.884 499 716.817 499.347 717.497 500.04C718.177 500.72 718.517 501.627 718.517 502.76C718.517 503.56 718.291 504.373 717.837 505.2C717.397 506.013 716.784 506.873 715.997 507.78C715.224 508.673 714.331 509.647 713.317 510.7C713.664 510.673 714.024 510.647 714.397 510.62C714.771 510.593 715.124 510.58 715.457 510.58H719.157V512H710.917ZM725.039 512.24C723.759 512.24 722.752 511.667 722.019 510.52C721.299 509.36 720.939 507.713 720.939 505.58C720.939 503.433 721.299 501.8 722.019 500.68C722.752 499.56 723.759 499 725.039 499C726.305 499 727.299 499.56 728.019 500.68C728.752 501.8 729.119 503.433 729.119 505.58C729.119 507.713 728.752 509.36 728.019 510.52C727.299 511.667 726.305 512.24 725.039 512.24ZM725.039 510.92C725.785 510.92 726.385 510.5 726.839 509.66C727.292 508.807 727.519 507.447 727.519 505.58C727.519 503.713 727.292 502.373 726.839 501.56C726.385 500.733 725.785 500.32 725.039 500.32C724.292 500.32 723.685 500.733 723.219 501.56C722.765 502.373 722.539 503.713 722.539 505.58C722.539 507.447 722.765 508.807 723.219 509.66C723.685 510.5 724.292 510.92 725.039 510.92ZM731.58 512V510.64H734.5V501.24H732.18V500.18C732.767 500.073 733.273 499.947 733.7 499.8C734.14 499.64 734.533 499.453 734.88 499.24H736.14V510.64H738.78V512H731.58ZM744.921 512.24C743.641 512.24 742.635 511.667 741.901 510.52C741.181 509.36 740.821 507.713 740.821 505.58C740.821 503.433 741.181 501.8 741.901 500.68C742.635 499.56 743.641 499 744.921 499C746.188 499 747.181 499.56 747.901 500.68C748.635 501.8 749.001 503.433 749.001 505.58C749.001 507.713 748.635 509.36 747.901 510.52C747.181 511.667 746.188 512.24 744.921 512.24ZM744.921 510.92C745.668 510.92 746.268 510.5 746.721 509.66C747.175 508.807 747.401 507.447 747.401 505.58C747.401 503.713 747.175 502.373 746.721 501.56C746.268 500.733 745.668 500.32 744.921 500.32C744.175 500.32 743.568 500.733 743.101 501.56C742.648 502.373 742.421 503.713 742.421 505.58C742.421 507.447 742.648 508.807 743.101 509.66C743.568 510.5 744.175 510.92 744.921 510.92Z" fill="#F2F2F2"/>
<path d="M734 485L734 0" stroke="#F2F2F2"/>
<path d="M740 391H734" stroke="#F2F2F2"/>
<path d="M740 485H734" stroke="#F2F2F2"/>
<path d="M751.175 396.24C749.895 396.24 748.889 395.667 748.155 394.52C747.435 393.36 747.075 391.713 747.075 389.58C747.075 387.433 747.435 385.8 748.155 384.68C748.889 383.56 749.895 383 751.175 383C752.442 383 753.435 383.56 754.155 384.68C754.889 385.8 755.255 387.433 755.255 389.58C755.255 391.713 754.889 393.36 754.155 394.52C753.435 395.667 752.442 396.24 751.175 396.24ZM751.175 394.92C751.922 394.92 752.522 394.5 752.975 393.66C753.429 392.807 753.655 391.447 753.655 389.58C753.655 387.713 753.429 386.373 752.975 385.56C752.522 384.733 751.922 384.32 751.175 384.32C750.429 384.32 749.822 384.733 749.355 385.56C748.902 386.373 748.675 387.713 748.675 389.58C748.675 391.447 748.902 392.807 749.355 393.66C749.822 394.5 750.429 394.92 751.175 394.92ZM758.637 396.24C758.303 396.24 758.017 396.127 757.777 395.9C757.55 395.66 757.437 395.36 757.437 395C757.437 394.613 757.55 394.307 757.777 394.08C758.017 393.84 758.303 393.72 758.637 393.72C758.957 393.72 759.23 393.84 759.457 394.08C759.697 394.307 759.817 394.613 759.817 395C759.817 395.36 759.697 395.66 759.457 395.9C759.23 396.127 758.957 396.24 758.637 396.24ZM766.097 396.24C764.817 396.24 763.811 395.667 763.077 394.52C762.357 393.36 761.997 391.713 761.997 389.58C761.997 387.433 762.357 385.8 763.077 384.68C763.811 383.56 764.817 383 766.097 383C767.364 383 768.357 383.56 769.077 384.68C769.811 385.8 770.177 387.433 770.177 389.58C770.177 391.713 769.811 393.36 769.077 394.52C768.357 395.667 767.364 396.24 766.097 396.24ZM766.097 394.92C766.844 394.92 767.444 394.5 767.897 393.66C768.351 392.807 768.577 391.447 768.577 389.58C768.577 387.713 768.351 386.373 767.897 385.56C767.444 384.733 766.844 384.32 766.097 384.32C765.351 384.32 764.744 384.733 764.277 385.56C763.824 386.373 763.597 387.713 763.597 389.58C763.597 391.447 763.824 392.807 764.277 393.66C764.744 394.5 765.351 394.92 766.097 394.92ZM772.639 396V394.64H775.559V385.24H773.239V384.18C773.825 384.073 774.332 383.947 774.759 383.8C775.199 383.64 775.592 383.453 775.939 383.24H777.199V394.64H779.839V396H772.639Z" fill="#F2F2F2"/>
<path d="M740 297H734" stroke="#F2F2F2"/>
<path d="M751.175 302.24C749.895 302.24 748.889 301.667 748.155 300.52C747.435 299.36 747.075 297.713 747.075 295.58C747.075 293.433 747.435 291.8 748.155 290.68C748.889 289.56 749.895 289 751.175 289C752.442 289 753.435 289.56 754.155 290.68C754.889 291.8 755.255 293.433 755.255 295.58C755.255 297.713 754.889 299.36 754.155 300.52C753.435 301.667 752.442 302.24 751.175 302.24ZM751.175 300.92C751.922 300.92 752.522 300.5 752.975 299.66C753.429 298.807 753.655 297.447 753.655 295.58C753.655 293.713 753.429 292.373 752.975 291.56C752.522 290.733 751.922 290.32 751.175 290.32C750.429 290.32 749.822 290.733 749.355 291.56C748.902 292.373 748.675 293.713 748.675 295.58C748.675 297.447 748.902 298.807 749.355 299.66C749.822 300.5 750.429 300.92 751.175 300.92ZM758.637 302.24C758.303 302.24 758.017 302.127 757.777 301.9C757.55 301.66 757.437 301.36 757.437 301C757.437 300.613 757.55 300.307 757.777 300.08C758.017 299.84 758.303 299.72 758.637 299.72C758.957 299.72 759.23 299.84 759.457 300.08C759.697 300.307 759.817 300.613 759.817 301C759.817 301.36 759.697 301.66 759.457 301.9C759.23 302.127 758.957 302.24 758.637 302.24ZM766.097 302.24C764.817 302.24 763.811 301.667 763.077 300.52C762.357 299.36 761.997 297.713 761.997 295.58C761.997 293.433 762.357 291.8 763.077 290.68C763.811 289.56 764.817 289 766.097 289C767.364 289 768.357 289.56 769.077 290.68C769.811 291.8 770.177 293.433 770.177 295.58C770.177 297.713 769.811 299.36 769.077 300.52C768.357 301.667 767.364 302.24 766.097 302.24ZM766.097 300.92C766.844 300.92 767.444 300.5 767.897 299.66C768.351 298.807 768.577 297.447 768.577 295.58C768.577 293.713 768.351 292.373 767.897 291.56C767.444 290.733 766.844 290.32 766.097 290.32C765.351 290.32 764.744 290.733 764.277 291.56C763.824 292.373 763.597 293.713 763.597 295.58C763.597 297.447 763.824 298.807 764.277 299.66C764.744 300.5 765.351 300.92 766.097 300.92ZM771.859 302V301.02C773.139 299.74 774.225 298.62 775.119 297.66C776.012 296.687 776.692 295.813 777.159 295.04C777.625 294.253 777.859 293.52 777.859 292.84C777.859 292.107 777.659 291.507 777.259 291.04C776.859 290.573 776.252 290.34 775.439 290.34C774.905 290.34 774.412 290.493 773.959 290.8C773.505 291.093 773.092 291.453 772.719 291.88L771.779 290.94C772.312 290.353 772.879 289.887 773.479 289.54C774.092 289.18 774.812 289 775.639 289C776.825 289 777.759 289.347 778.439 290.04C779.119 290.72 779.459 291.627 779.459 292.76C779.459 293.56 779.232 294.373 778.779 295.2C778.339 296.013 777.725 296.873 776.939 297.78C776.165 298.673 775.272 299.647 774.259 300.7C774.605 300.673 774.965 300.647 775.339 300.62C775.712 300.593 776.065 300.58 776.399 300.58H780.099V302H771.859Z" fill="#F2F2F2"/>
<path d="M740 203H734" stroke="#F2F2F2"/>
<path d="M751.175 208.24C749.895 208.24 748.889 207.667 748.155 206.52C747.435 205.36 747.075 203.713 747.075 201.58C747.075 199.433 747.435 197.8 748.155 196.68C748.889 195.56 749.895 195 751.175 195C752.442 195 753.435 195.56 754.155 196.68C754.889 197.8 755.255 199.433 755.255 201.58C755.255 203.713 754.889 205.36 754.155 206.52C753.435 207.667 752.442 208.24 751.175 208.24ZM751.175 206.92C751.922 206.92 752.522 206.5 752.975 205.66C753.429 204.807 753.655 203.447 753.655 201.58C753.655 199.713 753.429 198.373 752.975 197.56C752.522 196.733 751.922 196.32 751.175 196.32C750.429 196.32 749.822 196.733 749.355 197.56C748.902 198.373 748.675 199.713 748.675 201.58C748.675 203.447 748.902 204.807 749.355 205.66C749.822 206.5 750.429 206.92 751.175 206.92ZM758.637 208.24C758.303 208.24 758.017 208.127 757.777 207.9C757.55 207.66 757.437 207.36 757.437 207C757.437 206.613 757.55 206.307 757.777 206.08C758.017 205.84 758.303 205.72 758.637 205.72C758.957 205.72 759.23 205.84 759.457 206.08C759.697 206.307 759.817 206.613 759.817 207C759.817 207.36 759.697 207.66 759.457 207.9C759.23 208.127 758.957 208.24 758.637 208.24ZM766.097 208.24C764.817 208.24 763.811 207.667 763.077 206.52C762.357 205.36 761.997 203.713 761.997 201.58C761.997 199.433 762.357 197.8 763.077 196.68C763.811 195.56 764.817 195 766.097 195C767.364 195 768.357 195.56 769.077 196.68C769.811 197.8 770.177 199.433 770.177 201.58C770.177 203.713 769.811 205.36 769.077 206.52C768.357 207.667 767.364 208.24 766.097 208.24ZM766.097 206.92C766.844 206.92 767.444 206.5 767.897 205.66C768.351 204.807 768.577 203.447 768.577 201.58C768.577 199.713 768.351 198.373 767.897 197.56C767.444 196.733 766.844 196.32 766.097 196.32C765.351 196.32 764.744 196.733 764.277 197.56C763.824 198.373 763.597 199.713 763.597 201.58C763.597 203.447 763.824 204.807 764.277 205.66C764.744 206.5 765.351 206.92 766.097 206.92ZM775.779 208.24C774.765 208.24 773.919 208.06 773.239 207.7C772.559 207.327 772.005 206.907 771.579 206.44L772.419 205.36C772.805 205.76 773.259 206.113 773.779 206.42C774.299 206.727 774.932 206.88 775.679 206.88C776.452 206.88 777.085 206.667 777.579 206.24C778.072 205.813 778.319 205.247 778.319 204.54C778.319 204.033 778.185 203.593 777.919 203.22C777.665 202.833 777.239 202.533 776.639 202.32C776.052 202.107 775.252 202 774.239 202V200.74C775.145 200.74 775.859 200.633 776.379 200.42C776.912 200.207 777.292 199.92 777.519 199.56C777.745 199.2 777.859 198.8 777.859 198.36C777.859 197.733 777.659 197.24 777.259 196.88C776.872 196.52 776.339 196.34 775.659 196.34C775.125 196.34 774.632 196.46 774.179 196.7C773.739 196.94 773.325 197.253 772.939 197.64L772.059 196.6C772.552 196.133 773.099 195.753 773.699 195.46C774.299 195.153 774.972 195 775.719 195C776.825 195 777.739 195.287 778.459 195.86C779.179 196.42 779.539 197.213 779.539 198.24C779.539 199.013 779.325 199.647 778.899 200.14C778.472 200.633 777.912 201.013 777.219 201.28V201.36C777.992 201.533 778.645 201.9 779.179 202.46C779.712 203.007 779.979 203.72 779.979 204.6C779.979 205.347 779.792 205.993 779.419 206.54C779.045 207.087 778.539 207.507 777.899 207.8C777.272 208.093 776.565 208.24 775.779 208.24Z" fill="#F2F2F2"/>
<path d="M740 109H734" stroke="#F2F2F2"/>
<path d="M740 15H734" stroke="#F2F2F2"/>
<path d="M751.175 114.24C749.895 114.24 748.889 113.667 748.155 112.52C747.435 111.36 747.075 109.713 747.075 107.58C747.075 105.433 747.435 103.8 748.155 102.68C748.889 101.56 749.895 101 751.175 101C752.442 101 753.435 101.56 754.155 102.68C754.889 103.8 755.255 105.433 755.255 107.58C755.255 109.713 754.889 111.36 754.155 112.52C753.435 113.667 752.442 114.24 751.175 114.24ZM751.175 112.92C751.922 112.92 752.522 112.5 752.975 111.66C753.429 110.807 753.655 109.447 753.655 107.58C753.655 105.713 753.429 104.373 752.975 103.56C752.522 102.733 751.922 102.32 751.175 102.32C750.429 102.32 749.822 102.733 749.355 103.56C748.902 104.373 748.675 105.713 748.675 107.58C748.675 109.447 748.902 110.807 749.355 111.66C749.822 112.5 750.429 112.92 751.175 112.92ZM758.637 114.24C758.303 114.24 758.017 114.127 757.777 113.9C757.55 113.66 757.437 113.36 757.437 113C757.437 112.613 757.55 112.307 757.777 112.08C758.017 111.84 758.303 111.72 758.637 111.72C758.957 111.72 759.23 111.84 759.457 112.08C759.697 112.307 759.817 112.613 759.817 113C759.817 113.36 759.697 113.66 759.457 113.9C759.23 114.127 758.957 114.24 758.637 114.24ZM766.097 114.24C764.817 114.24 763.811 113.667 763.077 112.52C762.357 111.36 761.997 109.713 761.997 107.58C761.997 105.433 762.357 103.8 763.077 102.68C763.811 101.56 764.817 101 766.097 101C767.364 101 768.357 101.56 769.077 102.68C769.811 103.8 770.177 105.433 770.177 107.58C770.177 109.713 769.811 111.36 769.077 112.52C768.357 113.667 767.364 114.24 766.097 114.24ZM766.097 112.92C766.844 112.92 767.444 112.5 767.897 111.66C768.351 110.807 768.577 109.447 768.577 107.58C768.577 105.713 768.351 104.373 767.897 103.56C767.444 102.733 766.844 102.32 766.097 102.32C765.351 102.32 764.744 102.733 764.277 103.56C763.824 104.373 763.597 105.713 763.597 107.58C763.597 109.447 763.824 110.807 764.277 111.66C764.744 112.5 765.351 112.92 766.097 112.92ZM773.139 109.16H777.139V105.46C777.139 105.113 777.152 104.7 777.179 104.22C777.205 103.74 777.225 103.333 777.239 103H777.159C776.999 103.307 776.832 103.607 776.659 103.9C776.485 104.193 776.305 104.493 776.119 104.8L773.139 109.16ZM777.139 114V110.48H771.399V109.4L776.859 101.24H778.699V109.16H780.439V110.48H778.699V114H777.139Z" fill="#F2F2F2"/>
<path d="M751.175 20.24C749.895 20.24 748.889 19.6667 748.155 18.52C747.435 17.36 747.075 15.7133 747.075 13.58C747.075 11.4333 747.435 9.8 748.155 8.68C748.889 7.56 749.895 7 751.175 7C752.442 7 753.435 7.56 754.155 8.68C754.889 9.8 755.255 11.4333 755.255 13.58C755.255 15.7133 754.889 17.36 754.155 18.52C753.435 19.6667 752.442 20.24 751.175 20.24ZM751.175 18.92C751.922 18.92 752.522 18.5 752.975 17.66C753.429 16.8067 753.655 15.4467 753.655 13.58C753.655 11.7133 753.429 10.3733 752.975 9.56C752.522 8.73333 751.922 8.32 751.175 8.32C750.429 8.32 749.822 8.73333 749.355 9.56C748.902 10.3733 748.675 11.7133 748.675 13.58C748.675 15.4467 748.902 16.8067 749.355 17.66C749.822 18.5 750.429 18.92 751.175 18.92ZM758.637 20.24C758.303 20.24 758.017 20.1267 757.777 19.9C757.55 19.66 757.437 19.36 757.437 19C757.437 18.6133 757.55 18.3067 757.777 18.08C758.017 17.84 758.303 17.72 758.637 17.72C758.957 17.72 759.23 17.84 759.457 18.08C759.697 18.3067 759.817 18.6133 759.817 19C759.817 19.36 759.697 19.66 759.457 19.9C759.23 20.1267 758.957 20.24 758.637 20.24ZM766.097 20.24C764.817 20.24 763.811 19.6667 763.077 18.52C762.357 17.36 761.997 15.7133 761.997 13.58C761.997 11.4333 762.357 9.8 763.077 8.68C763.811 7.56 764.817 7 766.097 7C767.364 7 768.357 7.56 769.077 8.68C769.811 9.8 770.177 11.4333 770.177 13.58C770.177 15.7133 769.811 17.36 769.077 18.52C768.357 19.6667 767.364 20.24 766.097 20.24ZM766.097 18.92C766.844 18.92 767.444 18.5 767.897 17.66C768.351 16.8067 768.577 15.4467 768.577 13.58C768.577 11.7133 768.351 10.3733 767.897 9.56C767.444 8.73333 766.844 8.32 766.097 8.32C765.351 8.32 764.744 8.73333 764.277 9.56C763.824 10.3733 763.597 11.7133 763.597 13.58C763.597 15.4467 763.824 16.8067 764.277 17.66C764.744 18.5 765.351 18.92 766.097 18.92ZM775.739 20.24C774.725 20.24 773.885 20.06 773.219 19.7C772.552 19.34 771.999 18.94 771.559 18.5L772.359 17.42C772.745 17.7933 773.192 18.1333 773.699 18.44C774.205 18.7333 774.832 18.88 775.579 18.88C776.365 18.88 777.025 18.62 777.559 18.1C778.105 17.5667 778.379 16.8533 778.379 15.96C778.379 15.08 778.132 14.3933 777.639 13.9C777.145 13.4067 776.485 13.16 775.659 13.16C775.219 13.16 774.839 13.2267 774.519 13.36C774.212 13.4933 773.865 13.6867 773.479 13.94L772.599 13.38L773.019 7.24H779.399V8.66H774.459L774.119 12.44C774.425 12.28 774.732 12.1533 775.039 12.06C775.345 11.9667 775.692 11.92 776.079 11.92C776.812 11.92 777.472 12.0667 778.059 12.36C778.659 12.64 779.139 13.0733 779.499 13.66C779.859 14.2467 780.039 15 780.039 15.92C780.039 16.84 779.832 17.6267 779.419 18.28C779.019 18.92 778.492 19.4067 777.839 19.74C777.185 20.0733 776.485 20.24 775.739 20.24Z" fill="#F2F2F2"/>
<path d="M614.5 0V1H615.5V0H614.5ZM614.5 3V5H615.5V3H614.5ZM614.5 7V9H615.5V7H614.5ZM614.5 11V13H615.5V11H614.5ZM614.5 15V17H615.5V15H614.5ZM614.5 19V21H615.5V19H614.5ZM614.5 23V25H615.5V23H614.5ZM614.5 27V29H615.5V27H614.5ZM614.5 31V33H615.5V31H614.5ZM614.5 35V37H615.5V35H614.5ZM614.5 39V41H615.5V39H614.5ZM614.5 43V45H615.5V43H614.5ZM614.5 47V49H615.5V47H614.5ZM614.5 51V53H615.5V51H614.5ZM614.5 55V57H615.5V55H614.5ZM614.5 59V61H615.5V59H614.5ZM614.5 63V65H615.5V63H614.5ZM614.5 67V69H615.5V67H614.5ZM614.5 71V73H615.5V71H614.5ZM614.5 75V77H615.5V75H614.5ZM614.5 79V81H615.5V79H614.5ZM614.5 83V85H615.5V83H614.5ZM614.5 87V89H615.5V87H614.5ZM614.5 91V93H615.5V91H614.5ZM614.5 95V97H615.5V95H614.5ZM614.5 99V101H615.5V99H614.5ZM614.5 103V105H615.5V103H614.5ZM614.5 107V109H615.5V107H614.5ZM614.5 111V113H615.5V111H614.5ZM614.5 115V117H615.5V115H614.5ZM614.5 119V121H615.5V119H614.5ZM614.5 123V125H615.5V123H614.5ZM614.5 127V129H615.5V127H614.5ZM614.5 131V133H615.5V131H614.5ZM614.5 135V137H615.5V135H614.5ZM614.5 139V141H615.5V139H614.5ZM614.5 143V145H615.5V143H614.5ZM614.5 147V149H615.5V147H614.5ZM614.5 151V153H615.5V151H614.5ZM614.5 155V157H615.5V155H614.5ZM614.5 159V161H615.5V159H614.5ZM614.5 163V165H615.5V163H614.5ZM614.5 167V169H615.5V167H614.5ZM614.5 171V173H615.5V171H614.5ZM614.5 175V177H615.5V175H614.5ZM614.5 179V181H615.5V179H614.5ZM614.5 183V185H615.5V183H614.5ZM614.5 187V189H615.5V187H614.5ZM614.5 191V193H615.5V191H614.5ZM614.5 195V197H615.5V195H614.5ZM614.5 199V201H615.5V199H614.5ZM614.5 203V205H615.5V203H614.5ZM614.5 207V209H615.5V207H614.5ZM614.5 211V213H615.5V211H614.5ZM614.5 215V217H615.5V215H614.5ZM614.5 219V221H615.5V219H614.5ZM614.5 223V225H615.5V223H614.5ZM614.5 227V229H615.5V227H614.5ZM614.5 231V233H615.5V231H614.5ZM614.5 235V237H615.5V235H614.5ZM614.5 239V241H615.5V239H614.5ZM614.5 243V245H615.5V243H614.5ZM614.5 247V249H615.5V247H614.5ZM614.5 251V253H615.5V251H614.5ZM614.5 255V257H615.5V255H614.5ZM614.5 259V261H615.5V259H614.5ZM614.5 263V265H615.5V263H614.5ZM614.5 267V269H615.5V267H614.5ZM614.5 271V273H615.5V271H614.5ZM614.5 275V277H615.5V275H614.5ZM614.5 279V281H615.5V279H614.5ZM614.5 283V285H615.5V283H614.5ZM614.5 287V289H615.5V287H614.5ZM614.5 291V293H615.5V291H614.5ZM614.5 295V297H615.5V295H614.5ZM614.5 299V301H615.5V299H614.5ZM614.5 303V305H615.5V303H614.5ZM614.5 307V309H615.5V307H614.5ZM614.5 311V313H615.5V311H614.5ZM614.5 315V317H615.5V315H614.5ZM614.5 319V321H615.5V319H614.5ZM614.5 323V325H615.5V323H614.5ZM614.5 327V329H615.5V327H614.5ZM614.5 331V333H615.5V331H614.5ZM614.5 335V337H615.5V335H614.5ZM614.5 339V341H615.5V339H614.5ZM614.5 343V345H615.5V343H614.5ZM614.5 347V349H615.5V347H614.5ZM614.5 351V353H615.5V351H614.5ZM614.5 355V357H615.5V355H614.5ZM614.5 359V361H615.5V359H614.5ZM614.5 363V365H615.5V363H614.5ZM614.5 367V369H615.5V367H614.5ZM614.5 371V373H615.5V371H614.5ZM614.5 375V377H615.5V375H614.5ZM614.5 379V381H615.5V379H614.5ZM614.5 383V385H615.5V383H614.5ZM614.5 387V389H615.5V387H614.5ZM614.5 391V393H615.5V391H614.5ZM614.5 395V397H615.5V395H614.5ZM614.5 399V401H615.5V399H614.5ZM614.5 403V405H615.5V403H614.5ZM614.5 407V409H615.5V407H614.5ZM614.5 411V413H615.5V411H614.5ZM614.5 415V417H615.5V415H614.5ZM614.5 419V421H615.5V419H614.5ZM614.5 423V425H615.5V423H614.5ZM614.5 427V429H615.5V427H614.5ZM614.5 431V433H615.5V431H614.5ZM614.5 435V437H615.5V435H614.5ZM614.5 439V441H615.5V439H614.5ZM614.5 443V445H615.5V443H614.5ZM614.5 447V449H615.5V447H614.5ZM614.5 451V453H615.5V451H614.5ZM614.5 455V457H615.5V455H614.5ZM614.5 459V461H615.5V459H614.5ZM614.5 463V465H615.5V463H614.5ZM614.5 467V469H615.5V467H614.5ZM614.5 471V473H615.5V471H614.5ZM614.5 475V477H615.5V475H614.5ZM614.5 479V481H615.5V479H614.5ZM614.5 483V484H615.5V483H614.5ZM734.5 484V483H733.5V484H734.5ZM734.5 481V479H733.5V481H734.5ZM734.5 477V475H733.5V477H734.5ZM734.5 473V471H733.5V473H734.5ZM734.5 469V467H733.5V469H734.5ZM734.5 465V463H733.5V465H734.5ZM734.5 461V459H733.5V461H734.5ZM734.5 457V455H733.5V457H734.5ZM734.5 453V451H733.5V453H734.5ZM734.5 449V447H733.5V449H734.5ZM734.5 445V443H733.5V445H734.5ZM734.5 441V439H733.5V441H734.5ZM734.5 437V435H733.5V437H734.5ZM734.5 433V431H733.5V433H734.5ZM734.5 429V427H733.5V429H734.5ZM734.5 425V423H733.5V425H734.5ZM734.5 421V419H733.5V421H734.5ZM734.5 417V415H733.5V417H734.5ZM734.5 413V411H733.5V413H734.5ZM734.5 409V407H733.5V409H734.5ZM734.5 405V403H733.5V405H734.5ZM734.5 401V399H733.5V401H734.5ZM734.5 397V395H733.5V397H734.5ZM734.5 393V391H733.5V393H734.5ZM734.5 389V387H733.5V389H734.5ZM734.5 385V383H733.5V385H734.5ZM734.5 381V379H733.5V381H734.5ZM734.5 377V375H733.5V377H734.5ZM734.5 373V371H733.5V373H734.5ZM734.5 369V367H733.5V369H734.5ZM734.5 365V363H733.5V365H734.5ZM734.5 361V359H733.5V361H734.5ZM734.5 357V355H733.5V357H734.5ZM734.5 353V351H733.5V353H734.5ZM734.5 349V347H733.5V349H734.5ZM734.5 345V343H733.5V345H734.5ZM734.5 341V339H733.5V341H734.5ZM734.5 337V335H733.5V337H734.5ZM734.5 333V331H733.5V333H734.5ZM734.5 329V327H733.5V329H734.5ZM734.5 325V323H733.5V325H734.5ZM734.5 321V319H733.5V321H734.5ZM734.5 317V315H733.5V317H734.5ZM734.5 313V311H733.5V313H734.5ZM734.5 309V307H733.5V309H734.5ZM734.5 305V303H733.5V305H734.5ZM734.5 301V299H733.5V301H734.5ZM734.5 297V295H733.5V297H734.5ZM734.5 293V291H733.5V293H734.5ZM734.5 289V287H733.5V289H734.5ZM734.5 285V283H733.5V285H734.5ZM734.5 281V279H733.5V281H734.5ZM734.5 277V275H733.5V277H734.5ZM734.5 273V271H733.5V273H734.5ZM734.5 269V267H733.5V269H734.5ZM734.5 265V263H733.5V265H734.5ZM734.5 261V259H733.5V261H734.5ZM734.5 257V255H733.5V257H734.5ZM734.5 253V251H733.5V253H734.5ZM734.5 249V247H733.5V249H734.5ZM734.5 245V243H733.5V245H734.5ZM734.5 241V239H733.5V241H734.5ZM734.5 237V235H733.5V237H734.5ZM734.5 233V231H733.5V233H734.5ZM734.5 229V227H733.5V229H734.5ZM734.5 225V223H733.5V225H734.5ZM734.5 221V219H733.5V221H734.5ZM734.5 217V215H733.5V217H734.5ZM734.5 213V211H733.5V213H734.5ZM734.5 209V207H733.5V209H734.5ZM734.5 205V203H733.5V205H734.5ZM734.5 201V199H733.5V201H734.5ZM734.5 197V195H733.5V197H734.5ZM734.5 193V191H733.5V193H734.5ZM734.5 189V187H733.5V189H734.5ZM734.5 185V183H733.5V185H734.5ZM734.5 181V179H733.5V181H734.5ZM734.5 177V175H733.5V177H734.5ZM734.5 173V171H733.5V173H734.5ZM734.5 169V167H733.5V169H734.5ZM734.5 165V163H733.5V165H734.5ZM734.5 161V159H733.5V161H734.5ZM734.5 157V155H733.5V157H734.5ZM734.5 153V151H733.5V153H734.5ZM734.5 149V147H733.5V149H734.5ZM734.5 145V143H733.5V145H734.5ZM734.5 141V139H733.5V141H734.5ZM734.5 137V135H733.5V137H734.5ZM734.5 133V131H733.5V133H734.5ZM734.5 129V127H733.5V129H734.5ZM734.5 125V123H733.5V125H734.5ZM734.5 121V119H733.5V121H734.5ZM734.5 117V115H733.5V117H734.5ZM734.5 113V111H733.5V113H734.5ZM734.5 109V107H733.5V109H734.5ZM734.5 105V103H733.5V105H734.5ZM734.5 101V99H733.5V101H734.5ZM734.5 97V95H733.5V97H734.5ZM734.5 93V91H733.5V93H734.5ZM734.5 89V87H733.5V89H734.5ZM734.5 85V83H733.5V85H734.5ZM734.5 81V79H733.5V81H734.5ZM734.5 77V75H733.5V77H734.5ZM734.5 73V71H733.5V73H734.5ZM734.5 69V67H733.5V69H734.5ZM734.5 65V63H733.5V65H734.5ZM734.5 61V59H733.5V61H734.5ZM734.5 57V55H733.5V57H734.5ZM734.5 53V51H733.5V53H734.5ZM734.5 49V47H733.5V49H734.5ZM734.5 45V43H733.5V45H734.5ZM734.5 41V39H733.5V41H734.5ZM734.5 37V35H733.5V37H734.5ZM734.5 33V31H733.5V33H734.5ZM734.5 29V27H733.5V29H734.5ZM734.5 25V23H733.5V25H734.5ZM734.5 21V19H733.5V21H734.5ZM734.5 17V15H733.5V17H734.5ZM734.5 13V11H733.5V13H734.5ZM734.5 9V7.00001H733.5V9H734.5ZM734.5 4.99999V3H733.5V4.99999H734.5ZM734.5 1.00001V0H733.5V1.00001H734.5Z" fill="#F2F2F2"/>
<path d="M624.44 20V9.504H625.768V20H624.44ZM631.539 20.192C630.91 20.192 630.318 20.032 629.763 19.712C629.219 19.392 628.776 18.928 628.435 18.32C628.104 17.712 627.939 16.9813 627.939 16.128C627.939 15.2533 628.104 14.512 628.435 13.904C628.776 13.296 629.219 12.832 629.763 12.512C630.318 12.192 630.91 12.032 631.539 12.032C632.179 12.032 632.771 12.192 633.315 12.512C633.859 12.832 634.296 13.296 634.627 13.904C634.968 14.512 635.139 15.2533 635.139 16.128C635.139 16.9813 634.968 17.712 634.627 18.32C634.296 18.928 633.859 19.392 633.315 19.712C632.771 20.032 632.179 20.192 631.539 20.192ZM631.539 19.104C632.211 19.104 632.75 18.832 633.155 18.288C633.571 17.7333 633.779 17.0133 633.779 16.128C633.779 15.232 633.571 14.5067 633.155 13.952C632.75 13.3973 632.211 13.12 631.539 13.12C630.878 13.12 630.339 13.3973 629.923 13.952C629.507 14.5067 629.299 15.232 629.299 16.128C629.299 17.0133 629.507 17.7333 629.923 18.288C630.339 18.832 630.878 19.104 631.539 19.104ZM639.843 20.192C638.872 20.192 638.094 19.84 637.507 19.136C636.92 18.4213 636.627 17.4187 636.627 16.128C636.627 15.2853 636.782 14.56 637.091 13.952C637.411 13.3333 637.827 12.8587 638.339 12.528C638.862 12.1973 639.416 12.032 640.003 12.032C640.451 12.032 640.84 12.112 641.171 12.272C641.502 12.432 641.838 12.6507 642.179 12.928L642.115 11.6V8.608H643.443V20H642.355L642.243 19.088H642.195C641.896 19.3867 641.544 19.648 641.139 19.872C640.734 20.0853 640.302 20.192 639.843 20.192ZM640.131 19.088C640.814 19.088 641.475 18.7307 642.115 18.016V13.952C641.784 13.6533 641.464 13.4453 641.155 13.328C640.856 13.2 640.547 13.136 640.227 13.136C639.811 13.136 639.432 13.264 639.091 13.52C638.76 13.7653 638.494 14.112 638.291 14.56C638.088 14.9973 637.987 15.5147 637.987 16.112C637.987 17.04 638.174 17.7707 638.547 18.304C638.92 18.8267 639.448 19.088 640.131 19.088ZM646.062 20V12.224H647.374V20H646.062ZM646.734 10.624C646.478 10.624 646.265 10.5493 646.094 10.4C645.934 10.24 645.854 10.0267 645.854 9.76C645.854 9.504 645.934 9.296 646.094 9.136C646.265 8.976 646.478 8.896 646.734 8.896C646.99 8.896 647.198 8.976 647.358 9.136C647.529 9.296 647.614 9.504 647.614 9.76C647.614 10.0267 647.529 10.24 647.358 10.4C647.198 10.5493 646.99 10.624 646.734 10.624ZM650 20V12.224H651.088L651.2 13.344H651.248C651.621 12.9707 652.016 12.6613 652.432 12.416C652.848 12.16 653.322 12.032 653.856 12.032C654.677 12.032 655.274 12.2933 655.648 12.816C656.032 13.328 656.224 14.08 656.224 15.072V20H654.912V15.248C654.912 14.5227 654.794 13.9947 654.56 13.664C654.325 13.3333 653.952 13.168 653.44 13.168C653.045 13.168 652.688 13.2693 652.368 13.472C652.058 13.6747 651.706 13.9733 651.312 14.368V20H650ZM661.902 20.192C661.208 20.192 660.579 20.032 660.014 19.712C659.448 19.3813 659 18.912 658.67 18.304C658.339 17.696 658.174 16.9707 658.174 16.128C658.174 15.2747 658.339 14.544 658.67 13.936C659.011 13.328 659.448 12.8587 659.982 12.528C660.515 12.1973 661.075 12.032 661.661 12.032C662.654 12.032 663.416 12.3627 663.95 13.024C664.494 13.6853 664.766 14.5707 664.766 15.68C664.766 15.8187 664.76 15.9573 664.75 16.096C664.75 16.224 664.739 16.336 664.718 16.432H659.47C659.523 17.2533 659.779 17.9093 660.238 18.4C660.707 18.8907 661.315 19.136 662.062 19.136C662.435 19.136 662.776 19.0827 663.086 18.976C663.406 18.8587 663.71 18.7093 663.998 18.528L664.462 19.392C664.131 19.6053 663.752 19.792 663.326 19.952C662.91 20.112 662.435 20.192 661.902 20.192ZM659.454 15.488H663.614C663.614 14.6987 663.443 14.1013 663.102 13.696C662.771 13.28 662.302 13.072 661.694 13.072C661.15 13.072 660.659 13.2853 660.222 13.712C659.795 14.128 659.539 14.72 659.454 15.488ZM671.282 20.192C670.791 20.192 670.434 20.0427 670.21 19.744C669.997 19.4347 669.89 18.9973 669.89 18.432V8.608H671.202V18.528C671.202 18.7307 671.239 18.88 671.314 18.976C671.389 19.0613 671.474 19.104 671.57 19.104C671.613 19.104 671.65 19.104 671.682 19.104C671.725 19.0933 671.783 19.0827 671.858 19.072L672.034 20.064C671.949 20.1067 671.847 20.1387 671.73 20.16C671.613 20.1813 671.463 20.192 671.282 20.192ZM677.12 20.192C676.427 20.192 675.798 20.032 675.232 19.712C674.667 19.3813 674.219 18.912 673.888 18.304C673.558 17.696 673.392 16.9707 673.392 16.128C673.392 15.2747 673.558 14.544 673.888 13.936C674.23 13.328 674.667 12.8587 675.2 12.528C675.734 12.1973 676.294 12.032 676.88 12.032C677.872 12.032 678.635 12.3627 679.168 13.024C679.712 13.6853 679.984 14.5707 679.984 15.68C679.984 15.8187 679.979 15.9573 679.968 16.096C679.968 16.224 679.958 16.336 679.936 16.432H674.688C674.742 17.2533 674.998 17.9093 675.456 18.4C675.926 18.8907 676.534 19.136 677.28 19.136C677.654 19.136 677.995 19.0827 678.304 18.976C678.624 18.8587 678.928 18.7093 679.216 18.528L679.68 19.392C679.35 19.6053 678.971 19.792 678.544 19.952C678.128 20.112 677.654 20.192 677.12 20.192ZM674.672 15.488H678.832C678.832 14.6987 678.662 14.1013 678.32 13.696C677.99 13.28 677.52 13.072 676.912 13.072C676.368 13.072 675.878 13.2853 675.44 13.712C675.014 14.128 674.758 14.72 674.672 15.488ZM683.664 20L680.864 12.224H682.224L683.696 16.64C683.813 17.024 683.931 17.408 684.048 17.792C684.176 18.176 684.299 18.5547 684.416 18.928H684.48C684.597 18.5547 684.715 18.176 684.832 17.792C684.96 17.408 685.077 17.024 685.184 16.64L686.656 12.224H687.952L685.2 20H683.664ZM692.542 20.192C691.849 20.192 691.219 20.032 690.654 19.712C690.089 19.3813 689.641 18.912 689.31 18.304C688.979 17.696 688.814 16.9707 688.814 16.128C688.814 15.2747 688.979 14.544 689.31 13.936C689.651 13.328 690.089 12.8587 690.622 12.528C691.155 12.1973 691.715 12.032 692.302 12.032C693.294 12.032 694.057 12.3627 694.59 13.024C695.134 13.6853 695.406 14.5707 695.406 15.68C695.406 15.8187 695.401 15.9573 695.39 16.096C695.39 16.224 695.379 16.336 695.358 16.432H690.11C690.163 17.2533 690.419 17.9093 690.878 18.4C691.347 18.8907 691.955 19.136 692.702 19.136C693.075 19.136 693.417 19.0827 693.726 18.976C694.046 18.8587 694.35 18.7093 694.638 18.528L695.102 19.392C694.771 19.6053 694.393 19.792 693.966 19.952C693.55 20.112 693.075 20.192 692.542 20.192ZM690.094 15.488H694.254C694.254 14.6987 694.083 14.1013 693.742 13.696C693.411 13.28 692.942 13.072 692.334 13.072C691.79 13.072 691.299 13.2853 690.862 13.712C690.435 14.128 690.179 14.72 690.094 15.488ZM698.72 20.192C698.229 20.192 697.872 20.0427 697.648 19.744C697.434 19.4347 697.328 18.9973 697.328 18.432V8.608H698.64V18.528C698.64 18.7307 698.677 18.88 698.752 18.976C698.826 19.0613 698.912 19.104 699.008 19.104C699.05 19.104 699.088 19.104 699.12 19.104C699.162 19.0933 699.221 19.0827 699.296 19.072L699.472 20.064C699.386 20.1067 699.285 20.1387 699.168 20.16C699.05 20.1813 698.901 20.192 698.72 20.192ZM703.438 20.192C702.883 20.192 702.355 20.0907 701.854 19.888C701.352 19.6747 700.915 19.4187 700.542 19.12L701.198 18.24C701.539 18.5067 701.891 18.7307 702.254 18.912C702.616 19.0827 703.027 19.168 703.486 19.168C703.998 19.168 704.382 19.0507 704.638 18.816C704.894 18.5707 705.022 18.2827 705.022 17.952C705.022 17.6853 704.931 17.4613 704.75 17.28C704.579 17.0987 704.355 16.9493 704.078 16.832C703.811 16.704 703.534 16.5867 703.246 16.48C702.883 16.3413 702.526 16.1867 702.174 16.016C701.822 15.8347 701.534 15.6053 701.31 15.328C701.086 15.04 700.974 14.6773 700.974 14.24C700.974 13.6107 701.208 13.088 701.678 12.672C702.158 12.2453 702.819 12.032 703.662 12.032C704.142 12.032 704.59 12.1173 705.006 12.288C705.422 12.4587 705.779 12.6667 706.078 12.912L705.438 13.744C705.171 13.5413 704.894 13.376 704.606 13.248C704.318 13.12 704.003 13.056 703.662 13.056C703.171 13.056 702.808 13.168 702.574 13.392C702.35 13.616 702.238 13.8773 702.238 14.176C702.238 14.4213 702.318 14.624 702.478 14.784C702.638 14.9333 702.846 15.0667 703.102 15.184C703.358 15.2907 703.63 15.4027 703.918 15.52C704.291 15.6587 704.659 15.8187 705.022 16C705.384 16.1707 705.683 16.4053 705.918 16.704C706.163 16.992 706.286 17.3813 706.286 17.872C706.286 18.288 706.174 18.672 705.95 19.024C705.736 19.376 705.416 19.6587 704.99 19.872C704.574 20.0853 704.056 20.192 703.438 20.192ZM624.04 40V32.064H625.96L626.12 33.072H626.184C626.525 32.752 626.899 32.4747 627.304 32.24C627.72 31.9947 628.195 31.872 628.728 31.872C629.592 31.872 630.216 32.16 630.6 32.736C630.995 33.3013 631.192 34.08 631.192 35.072V40H628.84V35.376C628.84 34.8 628.76 34.4053 628.6 34.192C628.451 33.9787 628.205 33.872 627.864 33.872C627.565 33.872 627.309 33.9413 627.096 34.08C626.883 34.208 626.648 34.3947 626.392 34.64V40H624.04ZM636.748 40.192C635.991 40.192 635.308 40.0267 634.7 39.696C634.092 39.3653 633.612 38.8907 633.26 38.272C632.908 37.6533 632.732 36.9067 632.732 36.032C632.732 35.168 632.908 34.4267 633.26 33.808C633.623 33.1893 634.092 32.7147 634.668 32.384C635.244 32.0427 635.847 31.872 636.476 31.872C637.234 31.872 637.858 32.0427 638.348 32.384C638.85 32.7147 639.223 33.168 639.468 33.744C639.724 34.3093 639.852 34.9547 639.852 35.68C639.852 35.8827 639.842 36.0853 639.82 36.288C639.799 36.48 639.778 36.624 639.756 36.72H635.004C635.111 37.296 635.351 37.7227 635.724 38C636.098 38.2667 636.546 38.4 637.068 38.4C637.634 38.4 638.204 38.224 638.78 37.872L639.564 39.296C639.159 39.5733 638.706 39.792 638.204 39.952C637.703 40.112 637.218 40.192 636.748 40.192ZM634.988 35.168H637.852C637.852 34.7307 637.746 34.3733 637.532 34.096C637.33 33.808 636.994 33.664 636.524 33.664C636.162 33.664 635.836 33.792 635.548 34.048C635.26 34.2933 635.074 34.6667 634.988 35.168ZM643.306 40.192C642.58 40.192 642.004 39.9627 641.578 39.504C641.151 39.0347 640.938 38.464 640.938 37.792C640.938 36.96 641.29 36.3093 641.994 35.84C642.698 35.3707 643.834 35.056 645.402 34.896C645.38 34.544 645.274 34.2667 645.082 34.064C644.9 33.8507 644.591 33.744 644.154 33.744C643.823 33.744 643.487 33.808 643.146 33.936C642.804 34.064 642.442 34.24 642.058 34.464L641.21 32.912C641.711 32.6027 642.244 32.352 642.81 32.16C643.386 31.968 643.983 31.872 644.602 31.872C645.615 31.872 646.394 32.1653 646.938 32.752C647.482 33.3387 647.754 34.24 647.754 35.456V40H645.834L645.674 39.184H645.61C645.279 39.4827 644.922 39.728 644.538 39.92C644.164 40.1013 643.754 40.192 643.306 40.192ZM644.106 38.368C644.372 38.368 644.602 38.3093 644.794 38.192C644.996 38.064 645.199 37.8987 645.402 37.696V36.304C644.57 36.4107 643.994 36.5813 643.674 36.816C643.354 37.04 643.194 37.3067 643.194 37.616C643.194 37.872 643.274 38.064 643.434 38.192C643.604 38.3093 643.828 38.368 644.106 38.368ZM649.743 40V32.064H651.663L651.823 33.456H651.887C652.175 32.9227 652.522 32.528 652.927 32.272C653.332 32.0053 653.738 31.872 654.143 31.872C654.367 31.872 654.554 31.888 654.703 31.92C654.852 31.9413 654.98 31.9787 655.087 32.032L654.703 34.064C654.564 34.0213 654.426 33.9893 654.287 33.968C654.159 33.9467 654.01 33.936 653.839 33.936C653.54 33.936 653.226 34.048 652.895 34.272C652.575 34.4853 652.308 34.8587 652.095 35.392V40H649.743ZM658.278 40.192C657.467 40.192 656.902 39.952 656.582 39.472C656.273 38.9813 656.118 38.336 656.118 37.536V28.784H658.47V37.632C658.47 37.8773 658.513 38.048 658.598 38.144C658.694 38.24 658.79 38.288 658.886 38.288C658.939 38.288 658.982 38.288 659.014 38.288C659.057 38.2773 659.11 38.2667 659.174 38.256L659.462 40C659.334 40.0533 659.169 40.096 658.966 40.128C658.774 40.1707 658.545 40.192 658.278 40.192ZM661.576 43.104C661.342 43.104 661.134 43.088 660.952 43.056C660.782 43.024 660.616 42.9867 660.456 42.944L660.872 41.152C660.947 41.1627 661.032 41.1787 661.128 41.2C661.224 41.232 661.315 41.248 661.4 41.248C661.795 41.248 662.099 41.152 662.312 40.96C662.526 40.768 662.686 40.5173 662.792 40.208L662.904 39.792L659.848 32.064H662.216L663.352 35.472C663.47 35.8347 663.576 36.2027 663.672 36.576C663.768 36.9493 663.87 37.3333 663.976 37.728H664.04C664.126 37.3547 664.211 36.9813 664.296 36.608C664.392 36.224 664.488 35.8453 664.584 35.472L665.544 32.064H667.8L665.048 40.08C664.803 40.7413 664.531 41.296 664.232 41.744C663.934 42.2027 663.571 42.544 663.144 42.768C662.728 42.992 662.206 43.104 661.576 43.104ZM675.075 40.192C674.094 40.192 673.304 39.824 672.707 39.088C672.12 38.3413 671.827 37.3227 671.827 36.032C671.827 35.168 671.982 34.4267 672.291 33.808C672.611 33.1787 673.022 32.6987 673.523 32.368C674.035 32.0373 674.568 31.872 675.123 31.872C675.56 31.872 675.928 31.9467 676.227 32.096C676.526 32.2453 676.808 32.448 677.075 32.704L676.979 31.488V28.784H679.331V40H677.411L677.251 39.216H677.187C676.91 39.4933 676.584 39.728 676.211 39.92C675.838 40.1013 675.459 40.192 675.075 40.192ZM675.683 38.272C675.939 38.272 676.168 38.2187 676.371 38.112C676.584 38.0053 676.787 37.8187 676.979 37.552V34.304C676.776 34.112 676.558 33.9787 676.323 33.904C676.099 33.8293 675.88 33.792 675.667 33.792C675.294 33.792 674.963 33.9733 674.675 34.336C674.387 34.688 674.243 35.2427 674.243 36C674.243 36.7787 674.366 37.3547 674.611 37.728C674.867 38.0907 675.224 38.272 675.683 38.272ZM684.823 40.192C684.151 40.192 683.516 40.032 682.919 39.712C682.332 39.3813 681.858 38.9067 681.495 38.288C681.132 37.6587 680.951 36.9067 680.951 36.032C680.951 35.1467 681.132 34.3947 681.495 33.776C681.858 33.1573 682.332 32.688 682.919 32.368C683.516 32.0373 684.151 31.872 684.823 31.872C685.495 31.872 686.124 32.0373 686.711 32.368C687.298 32.688 687.772 33.1573 688.135 33.776C688.498 34.3947 688.679 35.1467 688.679 36.032C688.679 36.9067 688.498 37.6587 688.135 38.288C687.772 38.9067 687.298 39.3813 686.711 39.712C686.124 40.032 685.495 40.192 684.823 40.192ZM684.823 38.288C685.303 38.288 685.666 38.0853 685.911 37.68C686.156 37.264 686.279 36.7147 686.279 36.032C686.279 35.3387 686.156 34.7893 685.911 34.384C685.666 33.9787 685.303 33.776 684.823 33.776C684.332 33.776 683.964 33.9787 683.719 34.384C683.484 34.7893 683.367 35.3387 683.367 36.032C683.367 36.7147 683.484 37.264 683.719 37.68C683.964 38.0853 684.332 38.288 684.823 38.288ZM692.674 40.192C691.81 40.192 691.181 39.9093 690.786 39.344C690.402 38.768 690.21 37.984 690.21 36.992V32.064H692.562V36.688C692.562 37.2533 692.642 37.648 692.802 37.872C692.962 38.0853 693.213 38.192 693.554 38.192C693.853 38.192 694.103 38.1227 694.306 37.984C694.509 37.8453 694.727 37.6213 694.962 37.312V32.064H697.314V40H695.394L695.218 38.896H695.17C694.839 39.2907 694.477 39.6053 694.082 39.84C693.687 40.0747 693.218 40.192 692.674 40.192ZM703.544 40.192C703.192 40.192 702.834 40.1067 702.472 39.936C702.12 39.7547 701.789 39.4933 701.48 39.152H701.416L701.224 40H699.384V28.784H701.736V31.536L701.672 32.752C701.981 32.4747 702.317 32.2613 702.68 32.112C703.042 31.952 703.405 31.872 703.768 31.872C704.408 31.872 704.962 32.0373 705.432 32.368C705.901 32.6987 706.258 33.168 706.504 33.776C706.76 34.3733 706.888 35.0773 706.888 35.888C706.888 36.7947 706.728 37.5733 706.408 38.224C706.088 38.864 705.672 39.3547 705.16 39.696C704.658 40.0267 704.12 40.192 703.544 40.192ZM703 38.272C703.405 38.272 703.752 38.0853 704.04 37.712C704.328 37.3387 704.472 36.7467 704.472 35.936C704.472 34.5067 704.013 33.792 703.096 33.792C702.626 33.792 702.173 34.032 701.736 34.512V37.76C701.949 37.952 702.162 38.0853 702.376 38.16C702.589 38.2347 702.797 38.272 703 38.272ZM710.716 40.192C709.905 40.192 709.34 39.952 709.02 39.472C708.71 38.9813 708.556 38.336 708.556 37.536V28.784H710.908V37.632C710.908 37.8773 710.95 38.048 711.036 38.144C711.132 38.24 711.228 38.288 711.324 38.288C711.377 38.288 711.42 38.288 711.452 38.288C711.494 38.2773 711.548 38.2667 711.612 38.256L711.9 40C711.772 40.0533 711.606 40.096 711.404 40.128C711.212 40.1707 710.982 40.192 710.716 40.192ZM716.686 40.192C715.928 40.192 715.246 40.0267 714.638 39.696C714.03 39.3653 713.55 38.8907 713.198 38.272C712.846 37.6533 712.67 36.9067 712.67 36.032C712.67 35.168 712.846 34.4267 713.198 33.808C713.56 33.1893 714.03 32.7147 714.606 32.384C715.182 32.0427 715.784 31.872 716.414 31.872C717.171 31.872 717.795 32.0427 718.286 32.384C718.787 32.7147 719.16 33.168 719.406 33.744C719.662 34.3093 719.79 34.9547 719.79 35.68C719.79 35.8827 719.779 36.0853 719.758 36.288C719.736 36.48 719.715 36.624 719.694 36.72H714.942C715.048 37.296 715.288 37.7227 715.662 38C716.035 38.2667 716.483 38.4 717.006 38.4C717.571 38.4 718.142 38.224 718.718 37.872L719.502 39.296C719.096 39.5733 718.643 39.792 718.142 39.952C717.64 40.112 717.155 40.192 716.686 40.192ZM714.926 35.168H717.79C717.79 34.7307 717.683 34.3733 717.47 34.096C717.267 33.808 716.931 33.664 716.462 33.664C716.099 33.664 715.774 33.792 715.486 34.048C715.198 34.2933 715.011 34.6667 714.926 35.168ZM724.247 40.192C723.266 40.192 722.476 39.824 721.879 39.088C721.292 38.3413 720.999 37.3227 720.999 36.032C720.999 35.168 721.154 34.4267 721.463 33.808C721.783 33.1787 722.194 32.6987 722.695 32.368C723.207 32.0373 723.74 31.872 724.295 31.872C724.732 31.872 725.1 31.9467 725.399 32.096C725.698 32.2453 725.98 32.448 726.247 32.704L726.151 31.488V28.784H728.503V40H726.583L726.423 39.216H726.359C726.082 39.4933 725.756 39.728 725.383 39.92C725.01 40.1013 724.631 40.192 724.247 40.192ZM724.855 38.272C725.111 38.272 725.34 38.2187 725.543 38.112C725.756 38.0053 725.959 37.8187 726.151 37.552V34.304C725.948 34.112 725.73 33.9787 725.495 33.904C725.271 33.8293 725.052 33.792 724.839 33.792C724.466 33.792 724.135 33.9733 723.847 34.336C723.559 34.688 723.415 35.2427 723.415 36C723.415 36.7787 723.538 37.3547 723.783 37.728C724.039 38.0907 724.396 38.272 724.855 38.272ZM624.312 60V52.224H625.624V60H624.312ZM624.984 50.624C624.728 50.624 624.515 50.5493 624.344 50.4C624.184 50.24 624.104 50.0267 624.104 49.76C624.104 49.504 624.184 49.296 624.344 49.136C624.515 48.976 624.728 48.896 624.984 48.896C625.24 48.896 625.448 48.976 625.608 49.136C625.779 49.296 625.864 49.504 625.864 49.76C625.864 50.0267 625.779 50.24 625.608 50.4C625.448 50.5493 625.24 50.624 624.984 50.624ZM628.25 60V52.224H629.338L629.45 53.344H629.498C629.871 52.9707 630.266 52.6613 630.682 52.416C631.098 52.16 631.572 52.032 632.106 52.032C632.927 52.032 633.524 52.2933 633.898 52.816C634.282 53.328 634.474 54.08 634.474 55.072V60H633.162V55.248C633.162 54.5227 633.044 53.9947 632.81 53.664C632.575 53.3333 632.202 53.168 631.69 53.168C631.295 53.168 630.938 53.2693 630.618 53.472C630.308 53.6747 629.956 53.9733 629.562 54.368V60H628.25ZM640.155 60V58.912H642.491V51.392H640.635V50.544C641.104 50.4587 641.509 50.3573 641.851 50.24C642.203 50.112 642.517 49.9627 642.795 49.792H643.803V58.912H645.915V60H640.155ZM650.828 60.192C649.804 60.192 648.998 59.7333 648.412 58.816C647.836 57.888 647.548 56.5707 647.548 54.864C647.548 53.1467 647.836 51.84 648.412 50.944C648.998 50.048 649.804 49.6 650.828 49.6C651.841 49.6 652.636 50.048 653.212 50.944C653.798 51.84 654.092 53.1467 654.092 54.864C654.092 56.5707 653.798 57.888 653.212 58.816C652.636 59.7333 651.841 60.192 650.828 60.192ZM650.828 59.136C651.425 59.136 651.905 58.8 652.268 58.128C652.63 57.4453 652.812 56.3573 652.812 54.864C652.812 53.3707 652.63 52.2987 652.268 51.648C651.905 50.9867 651.425 50.656 650.828 50.656C650.23 50.656 649.745 50.9867 649.372 51.648C649.009 52.2987 648.828 53.3707 648.828 54.864C648.828 56.3573 649.009 57.4453 649.372 58.128C649.745 58.8 650.23 59.136 650.828 59.136ZM659.44 63.344C659.269 63.344 659.104 63.328 658.944 63.296C658.795 63.264 658.656 63.2267 658.528 63.184L658.784 62.144C658.869 62.1653 658.965 62.1867 659.072 62.208C659.179 62.24 659.28 62.256 659.376 62.256C659.813 62.256 660.176 62.096 660.464 61.776C660.752 61.4667 660.976 61.072 661.136 60.592L661.312 60.016L658.192 52.224H659.552L661.136 56.528C661.253 56.8587 661.376 57.216 661.504 57.6C661.643 57.984 661.771 58.3573 661.888 58.72H661.952C662.069 58.368 662.181 58 662.288 57.616C662.395 57.232 662.501 56.8693 662.608 56.528L664 52.224H665.28L662.352 60.64C662.171 61.152 661.952 61.6107 661.696 62.016C661.451 62.4213 661.141 62.7413 660.768 62.976C660.405 63.2213 659.963 63.344 659.44 63.344ZM669.87 60.192C669.177 60.192 668.548 60.032 667.982 59.712C667.417 59.3813 666.969 58.912 666.638 58.304C666.308 57.696 666.142 56.9707 666.142 56.128C666.142 55.2747 666.308 54.544 666.638 53.936C666.98 53.328 667.417 52.8587 667.95 52.528C668.484 52.1973 669.044 52.032 669.63 52.032C670.622 52.032 671.385 52.3627 671.918 53.024C672.462 53.6853 672.734 54.5707 672.734 55.68C672.734 55.8187 672.729 55.9573 672.718 56.096C672.718 56.224 672.708 56.336 672.686 56.432H667.438C667.492 57.2533 667.748 57.9093 668.206 58.4C668.676 58.8907 669.284 59.136 670.03 59.136C670.404 59.136 670.745 59.0827 671.054 58.976C671.374 58.8587 671.678 58.7093 671.966 58.528L672.43 59.392C672.1 59.6053 671.721 59.792 671.294 59.952C670.878 60.112 670.404 60.192 669.87 60.192ZM667.422 55.488H671.582C671.582 54.6987 671.412 54.1013 671.07 53.696C670.74 53.28 670.27 53.072 669.662 53.072C669.118 53.072 668.628 53.2853 668.19 53.712C667.764 54.128 667.508 54.72 667.422 55.488ZM676.229 60.192C675.578 60.192 675.034 60 674.597 59.616C674.17 59.2213 673.957 58.6773 673.957 57.984C673.957 57.1307 674.336 56.48 675.093 56.032C675.861 55.5733 677.072 55.2533 678.725 55.072C678.725 54.7413 678.677 54.4267 678.581 54.128C678.496 53.8293 678.336 53.5893 678.101 53.408C677.877 53.216 677.552 53.12 677.125 53.12C676.677 53.12 676.256 53.2053 675.861 53.376C675.466 53.5467 675.114 53.7387 674.805 53.952L674.293 53.04C674.656 52.8053 675.098 52.5813 675.621 52.368C676.154 52.144 676.73 52.032 677.349 52.032C678.298 52.032 678.986 52.3253 679.413 52.912C679.84 53.488 680.053 54.2613 680.053 55.232V60H678.965L678.853 59.072H678.805C678.442 59.3707 678.042 59.632 677.605 59.856C677.178 60.08 676.72 60.192 676.229 60.192ZM676.613 59.136C676.986 59.136 677.338 59.0453 677.669 58.864C678 58.6827 678.352 58.4267 678.725 58.096V55.936C677.434 56.096 676.528 56.336 676.005 56.656C675.493 56.976 675.237 57.3867 675.237 57.888C675.237 58.3253 675.37 58.6453 675.637 58.848C675.904 59.04 676.229 59.136 676.613 59.136ZM682.5 60V52.224H683.588L683.7 53.632H683.748C684.014 53.1413 684.34 52.752 684.724 52.464C685.108 52.176 685.518 52.032 685.956 52.032C686.265 52.032 686.542 52.0853 686.788 52.192L686.532 53.344C686.404 53.3013 686.286 53.2693 686.18 53.248C686.073 53.2267 685.94 53.216 685.78 53.216C685.449 53.216 685.102 53.3493 684.74 53.616C684.388 53.8827 684.078 54.3467 683.812 55.008V60H682.5ZM690.016 60.192C689.461 60.192 688.933 60.0907 688.432 59.888C687.931 59.6747 687.493 59.4187 687.12 59.12L687.776 58.24C688.117 58.5067 688.469 58.7307 688.832 58.912C689.195 59.0827 689.605 59.168 690.064 59.168C690.576 59.168 690.96 59.0507 691.216 58.816C691.472 58.5707 691.6 58.2827 691.6 57.952C691.6 57.6853 691.509 57.4613 691.328 57.28C691.157 57.0987 690.933 56.9493 690.656 56.832C690.389 56.704 690.112 56.5867 689.824 56.48C689.461 56.3413 689.104 56.1867 688.752 56.016C688.4 55.8347 688.112 55.6053 687.888 55.328C687.664 55.04 687.552 54.6773 687.552 54.24C687.552 53.6107 687.787 53.088 688.256 52.672C688.736 52.2453 689.397 52.032 690.24 52.032C690.72 52.032 691.168 52.1173 691.584 52.288C692 52.4587 692.357 52.6667 692.656 52.912L692.016 53.744C691.749 53.5413 691.472 53.376 691.184 53.248C690.896 53.12 690.581 53.056 690.24 53.056C689.749 53.056 689.387 53.168 689.152 53.392C688.928 53.616 688.816 53.8773 688.816 54.176C688.816 54.4213 688.896 54.624 689.056 54.784C689.216 54.9333 689.424 55.0667 689.68 55.184C689.936 55.2907 690.208 55.4027 690.496 55.52C690.869 55.6587 691.237 55.8187 691.6 56C691.963 56.1707 692.261 56.4053 692.496 56.704C692.741 56.992 692.864 57.3813 692.864 57.872C692.864 58.288 692.752 58.672 692.528 59.024C692.315 59.376 691.995 59.6587 691.568 59.872C691.152 60.0853 690.635 60.192 690.016 60.192Z" fill="#F2F2F2"/>
</svg>
